<svg width="88" height="112" viewBox="0 0 88 112" fill="none" xmlns="http://www.w3.org/2000/svg">
<g id="2023">
<g id="Group 162">
<g id="Group 64">
<path id="Path 148" d="M50.3011 98.076V109.164C49.5261 109.019 48.8421 108.872 48.1501 108.775C47.8625 108.745 47.5719 108.779 47.2991 108.872C46.6305 109.141 45.9037 109.244 45.1839 109.172C44.4641 109.101 43.7739 108.856 43.1753 108.461C42.5767 108.066 42.0885 107.532 41.7545 106.909C41.4205 106.285 41.2511 105.59 41.2617 104.887C41.2722 104.183 41.4624 103.493 41.8149 102.879C42.1675 102.265 42.6716 101.746 43.2817 101.368C43.8919 100.99 44.5892 100.765 45.3108 100.714C46.0324 100.662 46.7558 100.786 47.4161 101.074C47.6161 101.143 47.8241 101.189 48.1801 101.289C48.1801 100.625 48.1801 100.066 48.1801 99.5069C48.1831 97.7611 48.2101 97.7407 50.3011 98.076ZM48.1591 104.93C48.1526 104.479 48.0082 104.039 47.7441 103.668C47.4801 103.296 47.1085 103.01 46.6764 102.844C46.2444 102.679 45.7714 102.642 45.3177 102.738C44.8639 102.834 44.4499 103.059 44.1282 103.385C43.8065 103.711 43.5916 104.122 43.5109 104.567C43.4302 105.011 43.4874 105.469 43.6751 105.882C43.8627 106.295 44.1725 106.644 44.5649 106.886C44.9574 107.127 45.4148 107.25 45.8791 107.238C46.4928 107.215 47.0735 106.962 47.4988 106.531C47.9241 106.101 48.1608 105.527 48.1591 104.93Z" fill="#585858"/>
<path id="Path 149" d="M23.479 111.397H21.459V101.087C21.531 101.032 21.597 100.936 21.666 100.935C23.209 100.902 24.742 100.913 26.294 100.776C27.14 100.727 27.9788 100.953 28.6776 101.419C29.3764 101.885 29.8953 102.564 30.152 103.349C30.4924 104.074 30.6018 104.881 30.466 105.666C30.3302 106.452 29.9554 107.179 29.39 107.756C28.8437 108.376 28.1218 108.827 27.314 109.052C26.5062 109.277 25.6483 109.265 24.847 109.02C24.4266 108.891 24.0142 108.739 23.612 108.564L23.479 111.397ZM25.9 102.677C25.4349 102.683 24.9822 102.823 24.5994 103.08C24.2166 103.337 23.921 103.699 23.75 104.119C23.579 104.54 23.5404 105 23.6391 105.442C23.7378 105.884 23.9693 106.287 24.3042 106.601C24.6392 106.915 25.0625 107.125 25.5204 107.204C25.9783 107.283 26.4502 107.229 26.8761 107.047C27.302 106.865 27.6627 106.565 27.9125 106.183C28.1623 105.802 28.2898 105.357 28.279 104.905C28.2516 104.307 27.9892 103.743 27.5462 103.328C27.1031 102.913 26.5131 102.68 25.898 102.676L25.9 102.677Z" fill="#585858"/>
<path id="Path 150" d="M40.3522 109.23C39.4402 109.035 38.7871 108.858 38.1221 108.774C37.7855 108.757 37.4492 108.812 37.1362 108.933C36.2537 109.252 35.2888 109.285 34.3854 109.028C33.482 108.77 32.6885 108.235 32.1232 107.504C31.5579 106.772 31.2511 105.882 31.2486 104.967C31.246 104.051 31.5479 103.16 32.1091 102.425C32.6669 101.704 33.4438 101.171 34.3298 100.903C35.2159 100.634 36.1664 100.642 37.0472 100.927C37.5288 101.036 38.0309 101.025 38.5072 100.896C39.8662 100.571 40.3462 100.877 40.3502 102.201C40.3582 104.425 40.3522 106.647 40.3522 109.23ZM38.1521 104.933C38.1463 104.482 38.0025 104.043 37.7392 103.671C37.4759 103.299 37.105 103.012 36.6734 102.846C36.2419 102.68 35.7693 102.642 35.3156 102.738C34.862 102.833 34.4478 103.058 34.1257 103.383C33.8036 103.708 33.5882 104.118 33.5067 104.563C33.4252 105.007 33.4814 105.464 33.6682 105.877C33.8549 106.291 34.1638 106.64 34.5555 106.882C34.9472 107.124 35.4041 107.248 35.8681 107.237C36.4821 107.216 37.0638 106.965 37.4901 106.535C37.9164 106.105 38.1538 105.53 38.1521 104.933Z" fill="#585858"/>
<path id="Path 151" d="M75.327 109.176C74.7531 109.185 74.1832 109.083 73.6501 108.876C73.117 108.669 72.6313 108.362 72.2212 107.972C71.8111 107.581 71.4847 107.116 71.2608 106.602C71.037 106.088 70.9201 105.537 70.917 104.979C70.9262 103.858 71.389 102.785 72.2052 101.993C73.0215 101.201 74.1257 100.754 75.2789 100.747C76.4321 100.741 77.5416 101.175 78.3675 101.958C79.1933 102.74 79.6691 103.807 79.692 104.928C79.6956 105.487 79.5852 106.04 79.3671 106.557C79.1491 107.073 78.8278 107.543 78.4218 107.938C78.0158 108.333 77.5332 108.646 77.002 108.858C76.4708 109.071 75.9015 109.179 75.327 109.176ZM77.641 104.99C77.6457 104.539 77.5126 104.097 77.2584 103.72C77.0041 103.343 76.6404 103.048 76.2132 102.872C75.7861 102.696 75.3149 102.648 74.8594 102.733C74.4039 102.818 73.9847 103.033 73.655 103.35C73.3254 103.667 73.1001 104.073 73.0079 104.515C72.9156 104.956 72.9606 105.415 73.1369 105.832C73.3133 106.249 73.6132 106.606 73.9985 106.857C74.3838 107.108 74.8372 107.242 75.301 107.242C75.9158 107.237 76.5043 106.999 76.9412 106.578C77.3781 106.158 77.6288 105.588 77.64 104.99H77.641Z" fill="#585858"/>
<path id="Path 152" d="M13.1521 98.0137V99.7693L10.1581 99.9131V109.01H7.97412V99.8908H4.95312V98.0127L13.1521 98.0137Z" fill="#585858"/>
<path id="Path 153" d="M69.9331 103.549C69.0591 103.186 68.3761 102.85 67.6551 102.622C67.2085 102.492 66.7397 102.45 66.2761 102.497C66.1171 102.511 65.8351 103.015 65.8761 103.053C66.1444 103.374 66.4772 103.639 66.8541 103.831C67.5131 104.102 68.2481 104.2 68.9011 104.479C69.1748 104.584 69.4244 104.741 69.635 104.94C69.8457 105.14 70.0133 105.379 70.128 105.642C70.2428 105.905 70.3023 106.188 70.3032 106.474C70.3041 106.76 70.2462 107.043 70.1331 107.307C69.6481 108.655 68.2011 109.358 66.3541 109.147C65.6189 109.128 64.9216 108.826 64.4142 108.309C63.9069 107.791 63.6308 107.099 63.6461 106.385C64.5361 106.276 65.3991 105.908 66.0461 107.035C66.2161 107.333 67.0671 107.348 67.5981 107.327C67.7981 107.318 68.1851 106.679 68.1171 106.586C67.8498 106.214 67.4913 105.914 67.0741 105.711C66.4671 105.441 65.6671 105.461 65.1821 105.079C64.5821 104.602 63.8321 103.836 63.8411 103.204C63.8907 102.794 64.0311 102.399 64.2526 102.047C64.474 101.694 64.7714 101.393 65.1241 101.163C65.5806 100.861 66.112 100.685 66.6628 100.651C67.2136 100.618 67.7634 100.729 68.2549 100.973C68.7464 101.217 69.1615 101.585 69.4567 102.038C69.7519 102.491 69.9164 103.013 69.9331 103.549Z" fill="#585858"/>
<path id="Path 154" d="M51.145 101.009C53.345 100.696 53.345 100.696 53.925 102.477C54.3126 103.783 54.8179 105.054 55.435 106.274C55.866 104.993 56.305 103.713 56.727 102.43C57.311 100.653 57.305 100.651 59.475 101.027C58.575 103.555 57.736 106.076 56.742 108.543C56.609 108.871 55.71 109.029 55.16 109.04C54.714 109.049 53.975 108.824 53.86 108.52C52.898 106.073 52.056 103.583 51.145 101.009Z" fill="#585858"/>
<path id="Path 155" d="M80.7422 100.781L83.0482 101.121L82.9612 101.321L85.4482 100.709V102.686C85.2075 102.741 84.9637 102.782 84.7182 102.811C83.1562 102.915 82.8852 103.181 82.8692 104.738C82.8542 106.127 82.8692 107.516 82.8692 108.991H80.7422V100.781Z" fill="#585858"/>
<path id="Path 156" d="M14.328 109.013H12.228V100.812L14.442 101.093L14.359 101.312L16.941 100.729V102.73C16.556 102.761 16.211 102.802 15.865 102.816C15.6501 102.794 15.4328 102.82 15.2299 102.892C15.0271 102.965 14.8441 103.082 14.6953 103.234C14.5464 103.387 14.4355 103.57 14.3713 103.771C14.3071 103.971 14.2913 104.184 14.325 104.391C14.343 105.878 14.328 107.364 14.328 109.013Z" fill="#585858"/>
<path id="Path 157" d="M20.0728 109.005H18.0508V100.964H20.0728V109.005Z" fill="#585858"/>
<path id="Path 158" d="M62.4901 109.017H60.4461C60.4461 106.466 60.3871 103.952 60.5251 101.448C60.5411 101.156 61.6351 100.914 62.4911 100.534L62.4901 109.017Z" fill="#585858"/>
<path id="Path 159" d="M20.5539 99.1796C20.0339 99.5091 19.4988 100.114 18.9998 100.086C18.688 100.071 18.3933 99.9424 18.1755 99.7249C17.9578 99.5074 17.8331 99.2176 17.8269 98.9141C17.8207 98.6107 17.9333 98.3163 18.142 98.0905C18.3507 97.8647 18.6398 97.7245 18.9509 97.6981C19.4509 97.6495 20.0078 98.2376 20.5428 98.5477L20.5539 99.1796Z" fill="#585858"/>
<path id="Path 160" d="M63.4071 98.9666C62.5071 99.5372 61.9631 100.149 61.5141 100.09C61.2239 100.005 60.9593 99.8532 60.7431 99.6468C60.5269 99.4404 60.3656 99.1858 60.2731 98.9053C60.2328 98.7306 60.2394 98.5489 60.2922 98.3774C60.3451 98.206 60.4424 98.0506 60.5749 97.9263C60.7074 97.802 60.8706 97.713 61.0487 97.6677C61.2269 97.6224 61.414 97.6225 61.5921 97.6679C62.1141 97.7563 62.5521 98.325 63.4071 98.9666Z" fill="#585858"/>
<path id="Path 161" d="M43.5011 88.4514C38.7593 88.4587 34.1221 87.0976 30.1769 84.5405C26.2316 81.9835 23.1561 78.3455 21.3398 74.0877C19.5235 69.8298 19.0483 65.1437 19.9744 60.6231C20.9005 56.1025 23.1862 51.9509 26.5418 48.6942C29.8975 45.4375 34.1721 43.2225 38.824 42.3296C43.476 41.4368 48.2959 41.9064 52.673 43.6789C57.0502 45.4514 60.7876 48.447 63.4116 52.2862C66.0357 56.1255 67.4283 60.6355 67.4131 65.2449C67.3959 71.4011 64.8698 77.2998 60.3881 81.6493C55.9063 85.9989 49.8341 88.4447 43.5011 88.4514ZM43.5011 44.5551C39.2977 44.5487 35.1867 45.7546 31.6885 48.02C28.1903 50.2855 25.4621 53.5087 23.8489 57.2819C22.2358 61.0551 21.8103 65.2087 22.6262 69.2171C23.4422 73.2254 25.463 76.9084 28.4329 79.8C31.4028 82.6916 35.1883 84.6619 39.3104 85.4615C43.4326 86.2611 47.7061 85.8541 51.5902 84.292C55.4744 82.73 58.7946 80.083 61.1307 76.6861C63.4668 73.2892 64.7139 69.295 64.7141 65.2089C64.7172 62.4987 64.1711 59.8144 63.1069 57.3093C62.0427 54.8043 60.4812 52.5276 58.5117 50.6093C56.5422 48.691 54.2032 47.1686 51.6283 46.1291C49.0534 45.0897 46.2931 44.5535 43.5051 44.5512L43.5011 44.5551Z" fill="#585858"/>
<path id="Path 162" d="M28.676 30.2985C27.468 30.5415 26.4239 30.7846 25.7289 29.445C25.3959 29.0027 24.917 28.6846 24.3719 28.5439C23.5988 28.2904 22.7555 28.3321 22.0128 28.6604C21.2701 28.9887 20.6836 29.5791 20.3719 30.3121C19.9916 31.1303 19.9224 32.0532 20.1766 32.9164C20.4308 33.7796 20.9919 34.527 21.7599 35.0257C22.1158 35.2295 22.5098 35.3625 22.9191 35.4171C23.3283 35.4716 23.7446 35.4467 24.1438 35.3436C24.543 35.2405 24.9171 35.0613 25.2445 34.8165C25.5719 34.5717 25.846 34.2661 26.051 33.9175C26.789 32.9105 27.738 33.4315 28.641 33.4451C28.48 35.9288 26.2409 37.6844 23.3499 37.6756C22.6063 37.686 21.8678 37.5536 21.177 37.2859C20.4861 37.0183 19.8564 36.6207 19.3239 36.1159C18.7915 35.6112 18.3668 35.0092 18.0742 34.3445C17.7816 33.6799 17.6269 32.9656 17.6189 32.2427C17.4865 30.8124 17.9237 29.3872 18.8404 28.2611C19.7572 27.135 21.0835 26.3939 22.546 26.1905C25.849 25.8376 28.163 27.3346 28.676 30.2985Z" fill="#585858"/>
<path id="Path 163" d="M14.162 80.1185C9.93202 80.7493 1.762 74.3491 0 69.0231C4.262 68.5332 12.946 75.3339 14.162 80.1185Z" fill="#585858"/>
<path id="Path 164" d="M3.66113 48.3145C8.06113 49.7726 13.1141 58.2666 12.9141 63.7434C9.09612 63.4051 4.02613 55.0053 3.66113 48.3145Z" fill="#585858"/>
<path id="Path 165" d="M85.0601 58.7402C84.7471 64.425 79.1651 72.0024 74.4961 73.1873C74.4951 68.882 79.0361 60.7612 85.0601 58.7402Z" fill="#585858"/>
<path id="Path 166" d="M83.2838 48.3867C83.7318 53.9081 78.2368 63.1624 74.1378 63.7816C73.7518 58.581 79.1388 49.5143 83.2838 48.3867Z" fill="#585858"/>
<path id="Path 167" d="M12.6439 73.1703C8.11492 72.2712 2.30695 64.4216 2.04395 58.8564C6.24995 59.3668 13.0819 68.5947 12.6439 73.1703Z" fill="#585858"/>
<path id="Path 168" d="M87.132 68.958C85.05 74.5533 77.632 80.4072 73 80.1768C73.438 75.9279 82.095 69.0018 87.132 68.958Z" fill="#585858"/>
<path id="Path 169" d="M5.33691 81.4629C10.1769 79.9872 18.6019 82.5215 21.8819 86.3826C18.4379 88.3559 9.39391 85.7021 5.33691 81.4629Z" fill="#585858"/>
<path id="Path 170" d="M81.67 81.495C78.155 85.5777 69.077 88.2996 65.209 86.4293C68.04 82.6488 77.461 79.825 81.67 81.495Z" fill="#585858"/>
<path id="Path 171" d="M32.111 37.3499H29.747V34.9197C29.747 32.4613 29.776 30.0019 29.733 27.5435C29.717 26.6609 30.033 26.3605 30.942 26.3508C31.878 26.3411 32.178 26.6862 32.116 27.5523C32.057 28.3786 32.103 29.2107 32.103 30.0885C36.203 28.748 37.377 29.5898 37.377 33.7026C37.377 34.5075 37.335 35.3154 37.388 36.1183C37.449 37.0457 37.215 37.5016 36.105 37.4928C34.965 37.4831 34.971 36.8901 34.991 36.1076C35.02 35.049 35.008 33.9885 34.991 32.9289C35.0158 32.7368 34.9968 32.5418 34.9355 32.3577C34.8742 32.1735 34.772 32.0047 34.6362 31.8632C34.5003 31.7217 34.3341 31.611 34.1494 31.5388C33.9646 31.4666 33.7658 31.4347 33.567 31.4455C33.3678 31.4361 33.1688 31.4686 32.9837 31.5408C32.7986 31.6131 32.6318 31.7235 32.4947 31.8643C32.3575 32.005 32.2533 32.1729 32.1892 32.3565C32.125 32.5401 32.1025 32.735 32.123 32.9279C32.081 34.3578 32.111 35.7907 32.111 37.3499Z" fill="#585858"/>
<path id="Path 172" d="M29.1732 19.369C29.1732 20.1749 29.1732 20.9797 29.1732 21.7856C29.1672 23.1339 28.5302 23.5441 27.2092 23.096C26.8987 22.9625 26.5518 22.9311 26.2212 23.0066C25.4663 23.4021 24.5964 23.5391 23.7516 23.3956C22.9068 23.2521 22.1364 22.8363 21.5642 22.2153C20.9676 21.5059 20.6015 20.64 20.5125 19.7278C20.4234 18.8156 20.6155 17.8983 21.0642 17.0924C21.4814 16.3901 22.1133 15.8314 22.8721 15.4942C23.6308 15.1569 24.4788 15.0577 25.2982 15.2104C26.1602 15.3456 27.0339 15.3964 27.9062 15.3621C28.8622 15.3154 29.2652 15.5993 29.1862 16.5752C29.1142 17.4997 29.1732 18.4368 29.1732 19.369ZM26.9782 19.2504C26.9641 18.7155 26.7338 18.2075 26.3372 17.8363C25.9407 17.4652 25.4097 17.2608 24.8592 17.2674C24.5758 17.2704 24.2961 17.33 24.0374 17.4426C23.7787 17.5551 23.5466 17.7183 23.3555 17.9218C23.1644 18.1253 23.0185 18.3648 22.9268 18.6255C22.835 18.8862 22.7995 19.1625 22.8222 19.4371C22.832 19.7014 22.8961 19.9612 23.0109 20.201C23.1257 20.4409 23.2888 20.6559 23.4905 20.8334C23.6923 21.011 23.9286 21.1474 24.1855 21.2346C24.4424 21.3219 24.7147 21.3582 24.9862 21.3414C25.5352 21.3189 26.0527 21.0866 26.4263 20.695C26.8 20.3034 26.9994 19.7842 26.9812 19.2504H26.9782Z" fill="#585858"/>
<path id="Path 173" d="M13.127 90.3556C18.448 86.407 27.0409 88.3686 30.1039 91.0584C24.3479 93.3302 18.873 92.0023 13.127 90.3556Z" fill="#585858"/>
<path id="Path 174" d="M73.8812 90.3797C68.1682 91.9905 62.7252 93.3164 57.0342 91.0991C59.7692 87.6044 69.8592 87.096 73.8812 90.3797Z" fill="#585858"/>
<path id="Path 175" d="M67.7822 34.0672H62.2822L62.0372 34.4258C62.4252 34.8341 62.7572 35.501 63.2112 35.5923C63.5513 35.6698 63.9042 35.679 64.2481 35.6193C64.592 35.5597 64.9197 35.4324 65.2112 35.2453C65.5389 34.9508 65.9453 34.7517 66.3838 34.6709C66.8223 34.5901 67.2754 34.6309 67.6912 34.7885C67.4152 36.8366 65.6202 37.9817 63.2592 37.6804C62.7164 37.6137 62.1928 37.4425 61.7189 37.1767C61.2451 36.9109 60.8305 36.5558 60.4996 36.1324C60.1686 35.7089 59.9279 35.2255 59.7915 34.7105C59.6551 34.1955 59.6258 33.6592 59.7052 33.133C59.7474 32.5816 59.9054 32.0443 60.1696 31.5546C60.4337 31.0649 60.7984 30.6331 61.2411 30.2858C61.6837 29.9385 62.1949 29.6831 62.7431 29.5355C63.2913 29.3878 63.8648 29.3511 64.4282 29.4274C66.7352 29.6559 68.0462 31.3638 67.7822 34.0672ZM65.4362 32.2572L65.5773 31.8294C65.0517 31.5314 64.4762 31.3257 63.8772 31.2219C63.3772 31.2219 62.8702 31.6554 62.3682 31.8965L62.5302 32.2581L65.4362 32.2572Z" fill="#585858"/>
<path id="Path 176" d="M56.3031 20.1122C56.9321 21.6879 58.3121 22.1166 59.4391 21.0113C59.7459 20.7239 60.1323 20.5296 60.5509 20.4523C60.9695 20.375 61.4023 20.4179 61.7962 20.5758C61.6472 22.728 59.3902 23.9781 56.8772 23.3725C55.8954 23.0763 55.0548 22.4487 54.5071 21.6031C53.9594 20.7575 53.7406 19.7494 53.8901 18.7608C54.0396 17.7721 54.5477 16.8679 55.3226 16.2113C56.0975 15.5547 57.0882 15.1889 58.1161 15.1798C59.1134 15.1472 60.0841 15.4964 60.8192 16.1523C61.5544 16.8082 61.9953 17.7184 62.0471 18.6871C62.1751 19.5843 61.8822 19.9245 60.9422 19.9022C59.5042 19.8662 58.0632 19.9177 56.6232 19.9401C56.5492 19.9401 56.4741 20.0169 56.3031 20.1122ZM59.8331 18.0572C58.7011 16.5543 57.3461 16.6049 56.5601 18.0572H59.8331Z" fill="#585858"/>
<path id="Path 177" d="M45.8999 19.8982H40.3999L40.1589 20.2326C40.5519 20.6389 40.8849 21.2785 41.3539 21.3932C41.6731 21.4808 42.0079 21.5008 42.3357 21.4516C42.6635 21.4025 42.9767 21.2855 43.2539 21.1084C43.5712 20.7971 43.9719 20.5782 44.4105 20.4767C44.8491 20.3752 45.3082 20.395 45.7359 20.5339C45.7359 22.3741 44.1569 23.5474 41.8419 23.4822C41.2724 23.4819 40.7095 23.3647 40.1899 23.1384C39.6702 22.9121 39.2056 22.5816 38.8263 22.1688C38.447 21.7559 38.1617 21.2698 37.989 20.7423C37.8163 20.2149 37.76 19.6579 37.8239 19.1079C37.8358 18.5554 37.9648 18.0112 38.2027 17.5093C38.4406 17.0074 38.7825 16.5585 39.2068 16.1908C39.6311 15.823 40.1288 15.5442 40.6689 15.3718C41.209 15.1993 41.7799 15.1369 42.3459 15.1884C44.8109 15.3731 46.1769 17.0831 45.8999 19.8982ZM40.4179 18.0133H43.7379C42.7019 16.5659 41.4529 16.5756 40.4179 18.0133Z" fill="#585858"/>
<path id="Path 178" d="M42.638 37.7125C42.0663 37.734 41.496 37.6438 40.9608 37.4471C40.4256 37.2505 39.9365 36.9516 39.5223 36.5679C39.1081 36.1843 38.7773 35.7237 38.5495 35.2136C38.3217 34.7034 38.2015 34.154 38.196 33.5979C38.1905 33.0418 38.2999 32.4902 38.5176 31.9759C38.7353 31.4616 39.0569 30.995 39.4635 30.6037C39.87 30.2124 40.3532 29.9043 40.8844 29.6978C41.4155 29.4912 41.984 29.3904 42.556 29.4012C43.6898 29.3906 44.7815 29.8183 45.5909 30.5902C46.4003 31.362 46.8611 32.4148 46.872 33.517C46.8829 34.6191 46.4429 35.6804 45.6488 36.4672C44.8548 37.254 43.7718 37.702 42.638 37.7125ZM42.573 31.497C42.0244 31.5123 41.5034 31.7338 41.1194 32.1149C40.7354 32.496 40.5184 33.007 40.514 33.5404C40.5096 34.0739 40.7181 34.5882 41.0958 34.9752C41.4734 35.3623 41.9908 35.5918 42.539 35.6157C43.0875 35.6004 43.6086 35.3789 43.9926 34.9978C44.3766 34.6167 44.5936 34.1057 44.598 33.5723C44.6024 33.0388 44.3938 32.5246 44.0162 32.1375C43.6385 31.7505 43.1212 31.5209 42.573 31.497Z" fill="#585858"/>
<path id="Path 179" d="M7.53909 14.348C7.19509 12.1384 7.2011 12.1297 9.2391 12.1287C11.1551 12.1287 13.0721 12.1627 14.9871 12.1171C15.9251 12.0937 16.0291 12.5535 16.0341 13.2991C16.0391 14.0447 15.8031 14.4209 14.9921 14.3509C14.6921 14.3246 14.3791 14.3762 14.0781 14.3431C13.1431 14.2391 12.8781 14.6649 12.8951 15.5252C12.9391 17.726 12.8751 19.9297 12.9251 22.1353C12.9461 23.0491 12.5681 23.2931 11.6881 23.2882C10.8081 23.2834 10.4281 23.0287 10.4491 22.1217C10.4961 20.0055 10.4071 17.8863 10.4861 15.7711C10.5281 14.6639 10.1861 14.1895 9.01611 14.3431C8.52441 14.3759 8.03101 14.3776 7.53909 14.348Z" fill="#585858"/>
<path id="Path 180" d="M59.245 32.4538C58.145 32.5413 57.206 32.7105 56.281 31.8706C56.1 31.7108 55.8852 31.5917 55.6515 31.5216C55.4179 31.4515 55.1713 31.4321 54.9292 31.465C54.687 31.4978 54.4552 31.582 54.2503 31.7115C54.0453 31.8411 53.8721 32.0129 53.743 32.2147C53.3924 32.5759 53.196 33.0531 53.1936 33.5498C53.1911 34.0465 53.3829 34.5255 53.73 34.8899C53.8556 35.0937 54.0257 35.2681 54.2284 35.4008C54.4311 35.5335 54.6614 35.6211 54.9029 35.6576C55.1444 35.6941 55.3911 35.6785 55.6257 35.6118C55.8602 35.5451 56.0768 35.4291 56.26 35.2719C56.6518 34.9499 57.1176 34.7243 57.6181 34.6145C58.1186 34.5047 58.6389 34.5138 59.135 34.641C59.041 36.5307 57.535 37.7109 55.274 37.7177C54.1931 37.7337 53.1459 37.3522 52.342 36.6496C51.5381 35.947 51.0369 34.9751 50.9386 33.9286C50.8404 32.8821 51.1525 31.8381 51.8123 31.0057C52.4721 30.1733 53.431 29.6139 54.497 29.4395C56.975 29.0963 58.794 30.2005 59.245 32.4538Z" fill="#585858"/>
<path id="Path 181" d="M66.1802 76.3492C67.0442 71.5938 71.3922 66.3232 75.3342 65.251C75.8122 68.9906 69.3642 76.812 66.1802 76.3492Z" fill="#585858"/>
<path id="Path 182" d="M20.9109 76.4798C17.1989 76.1425 12.3428 70.2633 11.5898 65.3184C14.9888 65.5167 20.1279 71.6204 20.9109 76.4798Z" fill="#585858"/>
<path id="Path 183" d="M12.998 74.5396C16.807 74.4084 23.21 79.5098 24.381 83.6081C20.979 84.2585 14.222 78.8751 12.998 74.5396Z" fill="#585858"/>
<path id="Path 184" d="M74.152 74.5348C71.969 79.5575 65.992 84.2323 62.644 83.6131C63.974 79.3981 70.259 74.4026 74.152 74.5348Z" fill="#585858"/>
<path id="Path 185" d="M73.7821 52.9043C74.5101 56.954 73.2382 64.755 69.4822 66.7584C67.8142 63.467 70.3121 55.284 73.7821 52.9043Z" fill="#585858"/>
<path id="Path 186" d="M13.2821 52.9219C16.6401 55.2286 18.9291 62.527 17.6871 66.7255C13.9231 65.1828 12.5201 57.0668 13.2821 52.9219Z" fill="#585858"/>
<path id="Path 187" d="M68.6471 20.6645C69.6001 20.6956 70.503 20.3107 71.21 21.2565C71.337 21.4257 72.0101 21.2079 72.4331 21.169C72.2411 20.8541 72.1251 20.4099 71.8401 20.2514C71.3211 19.9598 70.5831 19.9773 70.1551 19.6186C69.5471 19.1092 68.7551 18.3792 68.7461 17.7376C68.786 17.3183 68.9183 16.9123 69.134 16.5472C69.3497 16.182 69.6437 15.8663 69.9961 15.6214C70.4204 15.3419 70.9136 15.1774 71.425 15.1447C71.9364 15.112 72.4475 15.2124 72.9058 15.4354C73.3641 15.6585 73.753 15.9962 74.0325 16.4138C74.312 16.8314 74.472 17.3138 74.4961 17.8115C73.6581 17.6258 72.9311 17.4615 72.2021 17.307C71.8934 17.229 71.5775 17.1815 71.2591 17.1651C71.1831 17.1651 71.0071 17.5179 71.0431 17.5539C71.2563 17.7986 71.5147 18.0024 71.805 18.1546C72.215 18.296 72.6323 18.4167 73.055 18.5163C73.356 18.5778 73.6407 18.6992 73.8912 18.8727C74.1416 19.0462 74.3525 19.2681 74.5106 19.5245C74.6688 19.781 74.7707 20.0665 74.81 20.363C74.8493 20.6595 74.8251 20.9608 74.7391 21.2478C74.5701 21.9573 74.1298 22.5776 73.5074 22.983C72.885 23.3883 72.1273 23.5482 71.3881 23.4301C71.0157 23.4428 70.6447 23.3791 70.2993 23.2432C69.9538 23.1074 69.6417 22.9024 69.3831 22.6415C69.1246 22.3807 68.9255 22.0698 68.7986 21.7292C68.6718 21.3886 68.6202 21.0258 68.6471 20.6645Z" fill="#585858"/>
<path id="Path 188" d="M29.9971 15.5581C32.3151 15.1469 32.3451 15.1693 32.8971 17.0872C33.1439 18.0624 33.5292 18.9995 34.0421 19.8713C34.3351 18.9391 34.6421 18.0107 34.9181 17.0727C35.4831 15.1616 35.5131 15.1392 37.8181 15.5552C36.9971 17.966 36.2381 20.3787 35.3071 22.7272C35.1731 23.0636 34.207 23.2133 33.631 23.2133C33.3954 23.2116 33.1635 23.1565 32.9536 23.0524C32.7437 22.9483 32.5617 22.798 32.4221 22.6135C31.5701 20.3175 30.8141 17.9777 29.9971 15.5581Z" fill="#585858"/>
<path id="Path 189" d="M49.3349 17.6338C49.3349 19.2008 49.3019 20.7697 49.3479 22.3348C49.3739 23.2097 48.8679 23.2651 48.1869 23.2719C47.5059 23.2787 47.0009 23.1941 47.0079 22.3368C47.0326 19.2455 47.0326 16.1537 47.0079 13.0611C47.0019 12.2057 47.4939 12.1182 48.1849 12.1212C48.8759 12.1241 49.3749 12.1853 49.3479 13.0592C49.3019 14.5824 49.3349 16.1086 49.3349 17.6338Z" fill="#585858"/>
<path id="Path 190" d="M52.9471 17.7554C52.9471 19.2407 52.9101 20.727 52.9611 22.2104C52.9911 23.0853 52.5791 23.2709 51.7761 23.2797C50.9161 23.2884 50.6421 22.9823 50.6531 22.1589C50.6911 19.1882 50.6911 16.2172 50.6531 13.2459C50.6441 12.441 50.8841 12.1134 51.7621 12.1066C52.6841 12.0979 52.9931 12.4216 52.9621 13.2984C52.9091 14.7828 52.9471 16.2691 52.9471 17.7554Z" fill="#585858"/>
<path id="Path 191" d="M20.174 15.401C20.325 16.6385 20.602 17.6534 18.845 17.5951C18.49 17.5824 17.869 18.3805 17.783 18.8723C17.6635 19.8808 17.6444 20.8981 17.726 21.9101C17.748 22.7111 17.694 23.2944 16.584 23.2885C15.553 23.2885 15.347 22.8579 15.372 21.9762C15.423 20.1992 15.454 18.4184 15.363 16.6453C15.303 15.4836 15.908 15.1162 16.831 15.4244C17.5449 15.7083 18.345 15.7083 19.059 15.4244C19.4268 15.3572 19.8035 15.3494 20.174 15.401Z" fill="#585858"/>
<path id="Path 192" d="M67.8231 17.4009C67.4351 17.4417 67.141 17.4981 66.847 17.4981C65.798 17.5156 65.3841 18.0677 65.3951 19.0378C65.4101 20.3822 65.3951 21.7266 65.3951 23.0312C63.255 23.5522 63.0611 23.4113 63.0601 21.4671C63.0601 19.4908 63.0601 17.5156 63.0601 15.5986H67.8191L67.8231 17.4009Z" fill="#585858"/>
<path id="Path 193" d="M22.2578 85.0269C25.5158 84.1384 30.6368 85.8046 32.6948 88.299C28.6198 89.0445 25.5308 87.2151 22.2578 85.0269Z" fill="#585858"/>
<path id="Path 194" d="M54.2119 88.1542C57.3879 85.7619 60.5979 84.3019 64.6209 84.8492C62.6259 87.3105 57.3699 89.0291 54.2119 88.1542Z" fill="#585858"/>
<path id="Path 195" d="M47.7792 29.7305H50.0452C50.0452 32.1548 50.0792 34.5112 49.9862 36.8636C49.9782 37.0765 49.1532 37.3983 48.7032 37.407C48.4032 37.4119 47.8282 36.9609 47.8202 36.7003C47.7522 34.4266 47.7792 32.151 47.7792 29.7305Z" fill="#585858"/>
<path id="Path 196" d="M54.7599 90.6163C52.3599 91.8625 48.2539 91.4912 46.4839 89.9359C48.3419 88.679 52.5239 88.99 54.7599 90.6163Z" fill="#585858"/>
<path id="Path 197" d="M32.396 90.6513C33.971 89.0882 38.107 88.675 40.56 89.8366C39.172 91.4678 34.738 91.915 32.396 90.6513Z" fill="#585858"/>
<path id="Path 198" d="M76.8622 14.9794C76.411 14.799 75.9882 14.5578 75.6062 14.2629C75.4707 14.1366 75.3644 13.9837 75.2946 13.8142C75.2248 13.6448 75.1931 13.4628 75.2015 13.2805C75.21 13.0981 75.2583 12.9197 75.3435 12.757C75.4286 12.5943 75.5486 12.4513 75.6952 12.3373C75.8185 12.1993 75.9717 12.0895 76.1438 12.0159C76.316 11.9423 76.5027 11.9067 76.6907 11.9116C76.8787 11.9165 77.0632 11.9619 77.231 12.0444C77.3988 12.1269 77.5457 12.2445 77.6612 12.3888C78.7072 13.391 78.3332 16.0467 77.0132 16.6416C76.6392 16.8108 76.0902 16.6154 75.6222 16.5872C75.8482 16.2509 76.0612 15.9068 76.3032 15.5802C76.4784 15.3703 76.665 15.1698 76.8622 14.9794Z" fill="#585858"/>
<path id="Path 199" d="M47.25 27.0275C47.765 26.6455 48.236 26.0389 48.806 25.932C49.694 25.7648 50.287 26.3733 50.295 27.2686C50.3184 27.4495 50.2988 27.6331 50.2376 27.8055C50.1765 27.9778 50.0754 28.1342 49.9423 28.2626C49.8092 28.3909 49.6475 28.4879 49.4697 28.5459C49.292 28.604 49.1029 28.6216 48.917 28.5974C48.333 28.5197 47.817 27.9627 47.271 27.6205L47.25 27.0275Z" fill="#585858"/>
<path id="Path 200" d="M43.1198 92.4006C42.8198 91.8892 42.2508 91.3449 42.3088 90.8763C42.4056 90.6074 42.5682 90.3653 42.7827 90.1711C42.9971 89.9768 43.257 89.8362 43.5398 89.7614C43.7132 89.7241 43.8935 89.7302 44.0637 89.7792C44.234 89.8282 44.3887 89.9184 44.5132 90.0414C44.6378 90.1645 44.7282 90.3162 44.7758 90.4825C44.8235 90.6488 44.827 90.8241 44.7858 90.992C44.6918 91.515 44.1138 91.9554 43.7518 92.4317L43.1198 92.4006Z" fill="#585858"/>
<path id="Path 201" d="M70.9958 26.8102V28.5085H69.0688V26.5352L70.0789 27.5811L70.7339 26.7247L70.9958 26.8102Z" fill="#585858"/>
<path id="Path 202" d="M43.5291 75.4499L40.9161 72.7474C39.9239 73.6003 38.7401 74.2154 37.4594 74.5434C36.1787 74.8714 34.8367 74.9032 33.5411 74.6362C31.7238 74.2807 30.092 73.3177 28.9291 71.9144C26.2231 68.7386 26.4211 64.8376 29.5731 60.7773L27.0521 57.9261C28.8791 57.9261 30.3871 57.9786 31.8891 57.9018C32.5707 57.8671 33.2359 57.6861 33.8371 57.372C36.7502 55.6571 40.0899 54.7484 43.4956 54.7442C46.9013 54.7399 50.2434 55.6401 53.1611 57.3477C53.8025 57.6765 54.5099 57.8652 55.2341 57.9008C56.6941 57.9854 58.1621 57.9261 59.9851 57.9261L57.4491 60.7967C58.2876 61.6061 58.948 62.5729 59.39 63.6383C59.832 64.7036 60.0463 65.8452 60.0201 66.9937C60.0125 68.4053 59.607 69.7879 58.8476 70.9912C58.0883 72.1945 57.0042 73.1724 55.7131 73.8187C54.4442 74.553 52.9848 74.9171 51.5089 74.8676C50.0331 74.8182 48.603 74.3572 47.3891 73.5397C46.3571 72.8845 45.7661 72.869 45.0631 73.8226C44.5852 74.394 44.073 74.9373 43.5291 75.4499ZM40.8041 66.8197C40.8165 66.1081 40.6823 65.4012 40.4093 64.7408C40.1364 64.0803 39.7303 63.4797 39.2148 62.9742C38.6994 62.4687 38.0851 62.0686 37.4081 61.7975C36.7312 61.5264 36.0052 61.3897 35.2731 61.3955C33.8168 61.4098 32.424 61.9769 31.3921 62.9759C30.3602 63.9748 29.7709 65.3264 29.7501 66.7419C29.7619 68.1785 30.3518 69.5535 31.3933 70.5727C32.4348 71.5918 33.8454 72.1743 35.3231 72.1953C36.7796 72.1777 38.1706 71.6042 39.196 70.5985C40.2214 69.5929 40.7989 68.2357 40.8041 66.8197ZM57.3041 66.7555C57.2977 65.3329 56.7102 63.971 55.6709 62.9695C54.6316 61.9679 53.2255 61.4088 51.7621 61.4149C50.2986 61.4211 48.8976 61.9922 47.8673 63.0025C46.837 64.0128 46.2617 65.3796 46.2681 66.8022C46.2744 68.2248 46.8619 69.5867 47.9012 70.5883C48.4159 71.0842 49.0259 71.4767 49.6966 71.7434C50.3673 72.0102 51.0854 72.1459 51.8101 72.1428C52.5347 72.1397 53.2516 71.998 53.9199 71.7256C54.5882 71.4532 55.1947 71.0555 55.7048 70.5553C56.215 70.055 56.6188 69.4619 56.8932 68.81C57.1676 68.158 57.3072 67.4599 57.3041 66.7555ZM37.7851 58.8048C39.1913 59.3901 40.4402 60.2819 41.4353 61.4113C42.4305 62.5406 43.1451 63.8772 43.5241 65.3178C43.9058 63.8737 44.6216 62.5334 45.6168 61.3988C46.612 60.2643 47.8605 59.3655 49.2671 58.7708C46.7681 57.0833 40.1521 57.095 37.7851 58.8048Z" fill="#585858"/>
<path id="Path 203" d="M38.2042 66.8205C38.1759 67.5684 37.847 68.2757 37.2882 68.7905C36.7293 69.3053 35.985 69.5866 35.2152 69.5738C34.4454 69.5611 33.7114 69.2554 33.1709 68.7224C32.6303 68.1895 32.3264 67.4717 32.3242 66.7233C32.3231 66.3431 32.4001 65.9665 32.5505 65.6156C32.701 65.2646 32.922 64.9463 33.2005 64.6794C33.479 64.4125 33.8095 64.2023 34.1726 64.0611C34.5357 63.9198 34.9242 63.8504 35.3152 63.8569C35.7063 63.8633 36.0921 63.9455 36.4501 64.0987C36.808 64.2519 37.131 64.4729 37.4 64.7489C37.669 65.0249 37.8787 65.3502 38.0168 65.7059C38.1549 66.0616 38.2186 66.4405 38.2042 66.8205Z" fill="#585858"/>
<path id="Path 204" d="M51.8031 69.6325C51.4206 69.6465 51.0392 69.5862 50.6811 69.4551C50.3229 69.324 49.9953 69.1247 49.7174 68.869C49.4395 68.6132 49.2169 68.3062 49.0626 67.9657C48.9084 67.6253 48.8256 67.2583 48.8191 66.8864C48.7967 66.3193 48.9486 65.7585 49.2555 65.2757C49.5624 64.7929 50.0103 64.4099 50.542 64.1756C51.0738 63.9414 51.6653 63.8664 52.2411 63.9603C52.8169 64.0542 53.3508 64.3127 53.7748 64.7029C54.1987 65.0931 54.4935 65.5972 54.6215 66.151C54.7494 66.7047 54.7048 67.2829 54.4932 67.8118C54.2817 68.3408 53.9128 68.7965 53.4336 69.1208C52.9545 69.4451 52.3868 69.6232 51.8031 69.6325Z" fill="#585858"/>
<g id="Group 63">
<path id="Path 205" d="M30.3079 7.91347C31.2506 7.04118 31.9689 6.35389 32.4629 5.85165C32.9071 5.4104 33.3056 4.92789 33.6529 4.41103C33.9229 4.03763 34.0783 3.5974 34.1009 3.14152C34.1225 2.78676 34.0005 2.43788 33.7609 2.16943C33.6367 2.04898 33.4876 1.95545 33.3235 1.89497C33.1595 1.83449 32.9841 1.8084 32.8089 1.81849C32.5188 1.81835 32.235 1.90117 31.9929 2.05664C31.7131 2.23633 31.4575 2.44928 31.2319 2.69048L30.2119 1.71252C30.5865 1.30838 31.0304 0.9706 31.5239 0.714215C32.005 0.488991 32.5341 0.377744 33.0679 0.389555C33.44 0.373115 33.8118 0.428272 34.1618 0.551885C34.5119 0.675498 34.8334 0.865098 35.1079 1.10984C35.3687 1.35967 35.5726 1.66012 35.7061 1.99156C35.8396 2.323 35.8999 2.67802 35.8829 3.03359C35.8538 3.76875 35.5926 4.47741 35.1349 5.06331C34.4858 5.93795 33.7676 6.76218 32.9869 7.52853C33.4695 7.46803 33.9554 7.43554 34.4419 7.43128H36.3049V8.95164H30.3049L30.3079 7.91347Z" fill="#585858"/>
<path id="Path 206" d="M38.8539 8.60756C38.3589 8.21727 37.9907 7.69597 37.7939 7.10666C37.5267 6.33653 37.4001 5.52689 37.4199 4.71436C37.3468 3.589 37.6317 2.46903 38.2359 1.5065C38.4879 1.16124 38.8212 0.87967 39.2081 0.685355C39.5949 0.491041 40.024 0.389648 40.4594 0.389648C40.8949 0.389648 41.324 0.491041 41.7108 0.685355C42.0977 0.87967 42.431 1.16124 42.6829 1.5065C43.2864 2.46932 43.5709 3.58914 43.4979 4.71436C43.5176 5.52681 43.3914 6.33636 43.125 7.10666C42.9281 7.69443 42.5623 8.21521 42.0709 8.60756C41.6036 8.93826 41.0405 9.11644 40.4625 9.11644C39.8844 9.11644 39.3212 8.93826 38.8539 8.60756ZM41.4039 7.03475C41.6791 6.29197 41.7948 5.50227 41.7439 4.71436C41.7962 3.94388 41.6803 3.1714 41.4039 2.44749C41.3354 2.25826 41.2083 2.09425 41.0401 1.978C40.8719 1.86176 40.6708 1.79898 40.4644 1.79823C40.258 1.79749 40.0565 1.85883 39.8874 1.97385C39.7183 2.08888 39.5899 2.25193 39.5199 2.44067C39.248 3.16793 39.1346 3.94222 39.1869 4.71436C39.1361 5.50227 39.2518 6.29197 39.5269 7.03475C39.5873 7.231 39.7112 7.40306 39.8801 7.52542C40.0491 7.64777 40.2542 7.71385 40.465 7.71385C40.6757 7.71385 40.8807 7.64777 41.0497 7.52542C41.2187 7.40306 41.3426 7.231 41.4029 7.03475H41.4039Z" fill="#585858"/>
<path id="Path 207" d="M44.534 7.91347C45.4767 7.04118 46.1953 6.35389 46.69 5.85165C47.1336 5.41017 47.5318 4.92768 47.879 4.41103C48.1493 4.03768 48.3049 3.59748 48.328 3.14152C48.3493 2.78663 48.2269 2.43773 47.987 2.16943C47.8628 2.04893 47.7137 1.95533 47.5497 1.89485C47.3856 1.83436 47.2101 1.80834 47.035 1.81849C46.7451 1.81825 46.4616 1.90109 46.22 2.05664C45.9399 2.23629 45.6839 2.44924 45.458 2.69048L44.438 1.71252C44.812 1.30824 45.2556 0.970428 45.749 0.714215C46.2301 0.488991 46.7592 0.377744 47.293 0.389555C47.6651 0.373115 48.0368 0.428272 48.3869 0.551885C48.737 0.675498 49.0585 0.865098 49.333 1.10984C49.594 1.35959 49.798 1.65999 49.9317 1.99144C50.0654 2.32289 50.1258 2.67795 50.109 3.03359C50.0799 3.76875 49.8187 4.47741 49.361 5.06331C48.7118 5.93796 47.9937 6.76219 47.213 7.52853C47.6956 7.46806 48.1814 7.43556 48.668 7.43128H50.534V8.95164H44.534V7.91347Z" fill="#585858"/>
<path id="Path 208" d="M51.4409 7.9259L52.2979 6.77594C52.5464 7.0397 52.8463 7.25283 53.1801 7.40301C53.514 7.5532 53.8753 7.63741 54.2429 7.65078C54.6206 7.66886 54.9944 7.56944 55.3099 7.36694C55.4398 7.27648 55.5444 7.15594 55.6143 7.01623C55.6841 6.87653 55.717 6.72209 55.7099 6.56692C55.7195 6.37702 55.6758 6.18816 55.5835 6.02054C55.4912 5.85291 55.3538 5.71281 55.1859 5.61525C54.6006 5.35741 53.9575 5.24838 53.3169 5.29836V4.00256C53.8776 4.04559 54.4396 3.93837 54.9419 3.6925C55.0941 3.60045 55.2188 3.47121 55.3035 3.3177C55.3883 3.16419 55.4301 2.99175 55.4249 2.8176C55.4333 2.68137 55.4108 2.54501 55.3589 2.41818C55.3071 2.29136 55.2272 2.17716 55.1249 2.08367C54.8907 1.90068 54.5949 1.80885 54.2949 1.82606C54.0006 1.82276 53.7095 1.88637 53.4449 2.01176C53.1479 2.16162 52.875 2.35286 52.6349 2.57944L51.6969 1.4693C52.4243 0.804779 53.378 0.424123 54.3759 0.40003C55.1325 0.361232 55.8802 0.572999 56.4969 1.00076C56.7571 1.20026 56.9645 1.45732 57.1017 1.75053C57.239 2.04374 57.3021 2.36461 57.2859 2.68636C57.2846 3.11005 57.1421 3.52196 56.8798 3.86035C56.6175 4.19873 56.2495 4.44543 55.8309 4.56348V4.61694C56.3171 4.74303 56.7558 5.00215 57.0949 5.3635C57.4184 5.72795 57.5884 6.19765 57.5709 6.6787C57.5815 7.14785 57.4336 7.60745 57.1499 7.98713C56.8571 8.36631 56.4618 8.65907 56.0079 8.83284C55.5024 9.03178 54.9612 9.1309 54.4159 9.12445C53.8599 9.14988 53.3049 9.05563 52.7906 8.84844C52.2763 8.64125 51.8155 8.32626 51.4409 7.9259Z" fill="#585858"/>
</g>
</g>
</g>
</g>
</svg>
