<svg width="128" height="68" viewBox="0 0 128 68" fill="none" xmlns="http://www.w3.org/2000/svg">
<g id="Group 166">
<g id="Group 165">
<path id="Path 405" d="M0.135391 23.5577C0.135391 18.9889 0.127391 14.4201 0.135391 9.85616C0.141391 7.57177 0.535398 7.15089 2.8044 6.60944C11.2164 4.60209 19.6124 2.53249 28.0434 0.603874C29.2384 0.447895 30.4543 0.55451 31.6014 0.915897C39.6684 2.82507 47.7174 4.80428 55.7774 6.73872C57.0184 7.03715 57.8304 7.66899 57.8254 8.96186C57.7864 18.5408 58.0254 28.1323 57.5784 37.6937C57.2224 45.3518 53.0414 51.4487 47.4014 56.6027C42.3571 61.1118 36.4771 64.6478 30.0744 67.0224C29.4823 67.2747 28.8184 67.3191 28.1964 67.1478C19.4854 63.6639 11.6394 58.9823 5.91139 51.4895C2.11168 46.6295 0.082183 40.6793 0.14235 34.5753C0.15635 30.9018 0.14235 27.2282 0.14235 23.5547L0.135391 23.5577ZM53.4794 24.2994C53.4794 20.3304 53.4034 16.3594 53.5184 12.3933C53.5624 10.8817 52.9814 10.3918 51.5504 10.0603C44.9104 8.54582 38.3074 6.87481 31.6694 5.35156C30.3156 4.96944 28.8919 4.88178 27.4993 5.09489C20.2543 6.71244 13.0544 8.51568 5.8304 10.2227C4.8214 10.4608 4.48935 10.9031 4.49635 11.9491C4.55035 19.4895 4.53938 27.0319 4.52138 34.5724C4.50456 40.1268 6.48542 45.5123 10.1214 49.7971C14.9064 55.6559 21.2274 59.4936 28.1364 62.5139C28.6912 62.7188 29.305 62.714 29.8563 62.5003C34.5193 60.6016 38.8667 58.0408 42.7564 54.9015C49.1914 49.5628 53.4564 43.1131 53.4694 34.5636C53.478 31.1432 53.4797 27.7211 53.4744 24.2974L53.4794 24.2994Z" fill="#00A1E9"/>
<path id="Path 406" d="M67.8315 34.1083L70.4465 31.1347C72.4215 31.8987 74.1585 32.7046 75.9825 33.2208C76.9686 33.4698 78.0078 33.436 78.9745 33.1236C79.3452 32.9836 79.677 32.7613 79.9434 32.4743C80.2097 32.1874 80.4033 31.8438 80.5085 31.471C80.477 31.0848 80.3488 30.712 80.1352 30.385C79.9215 30.058 79.6288 29.7868 79.2825 29.5949C77.4125 28.8309 75.4125 28.3749 73.4775 27.7548C68.9455 26.3034 67.2516 22.071 69.7946 18.312C70.4613 17.38 71.3512 16.6197 72.3875 16.0966C75.9875 14.2564 81.7876 15.2091 84.8806 18.0583L82.5345 21.3351C80.9245 20.7315 79.4346 20.154 77.9196 19.6165C77.5313 19.4958 77.1271 19.4303 76.7195 19.422C75.1065 19.3346 73.8265 19.9936 73.6535 21.0843C73.4045 22.6591 74.6636 23.1413 75.8156 23.534C77.6406 24.1552 79.5516 24.5469 81.3586 25.2099C84.4876 26.3589 85.8145 28.3662 85.6185 31.3398C85.5686 32.7426 85.0378 34.089 84.1105 35.1649C83.1832 36.2409 81.9126 36.9847 80.5005 37.2783C78.2826 37.7865 75.9709 37.7636 73.7641 37.2114C71.5573 36.6592 69.5214 35.5943 67.8315 34.1083Z" fill="#00A1E9"/>
<path id="Path 407" d="M105.225 17.9428L102.825 21.3159C101.059 20.6927 99.4142 20.0804 97.7442 19.5418C97.2532 19.4046 96.7376 19.3714 96.2322 19.4446C95.1132 19.5807 94.0792 19.9686 93.9002 21.2158C93.7262 22.4289 94.6242 23.019 95.6282 23.3544C97.7422 24.0649 99.9282 24.585 102.002 25.3957C105.023 26.5719 106.129 28.5783 105.794 31.7668C105.682 33.0877 105.132 34.3377 104.227 35.3292C103.322 36.3208 102.111 37.0007 100.775 37.2668C98.5609 37.7874 96.2499 37.7806 94.0389 37.247C91.8278 36.7134 89.7819 35.6687 88.0752 34.2018L90.6832 31.0911C92.4576 31.8879 94.2757 32.5895 96.1292 33.1928C97.2151 33.4404 98.3494 33.4008 99.4142 33.0781C99.7638 32.9384 100.073 32.7184 100.316 32.4368C100.559 32.1552 100.728 31.8205 100.808 31.4615C100.778 31.0909 100.656 30.7329 100.453 30.4182C100.25 30.1035 99.9707 29.8414 99.6402 29.6544C97.7692 28.8962 95.7812 28.414 93.8402 27.8075C89.8812 26.5583 88.3312 24.0504 89.1812 20.1873C89.4106 19.108 89.9504 18.1141 90.738 17.3213C91.5256 16.5285 92.5286 15.9694 93.6302 15.7089C97.8462 14.4598 101.642 15.4435 105.225 17.9428Z" fill="#00A1E9"/>
<path id="Path 408" d="M110.274 37.2498V15.5791H115.184V32.9852H126.317V37.2498H110.274Z" fill="#00A1E9"/>
<path id="Path 409" d="M104.451 49.7005H102.566V41.2812C103.816 41.2812 104.978 41.2812 106.141 41.2812C107.576 41.2812 108.927 41.465 109.541 42.9892C110.09 44.3414 109.658 45.4699 108.041 46.7978L109.803 49.5002C107.91 49.9571 107.925 49.9104 106.633 48.1529C106.119 47.6191 105.534 47.1546 104.893 46.7716L104.442 47.1031L104.451 49.7005ZM104.495 45.5253C105.522 45.3217 106.535 45.0577 107.529 44.735C107.669 44.3189 107.653 43.8682 107.483 43.4626C106.503 43.1741 105.505 42.9468 104.495 42.7822V45.5253Z" fill="#00A1E9"/>
<path id="Path 410" d="M119.862 41.3064C121.085 41.3064 122.151 41.2996 123.216 41.3064C123.765 41.2644 124.317 41.3287 124.84 41.4956C125.362 41.6624 125.846 41.9284 126.262 42.2782C126.679 42.6281 127.019 43.0547 127.265 43.5335C127.51 44.0123 127.656 44.5337 127.692 45.0674C127.814 46.1441 127.501 47.2247 126.818 48.0808C126.136 48.937 125.137 49.5017 124.034 49.6556C122.646 49.7673 121.252 49.7794 119.862 49.6916V41.3064ZM121.7 43.0319V47.9049C123.145 48.1236 124.594 48.2267 125.248 46.8356C125.618 45.9575 125.622 44.9745 125.26 44.0934C124.598 42.712 123.141 42.8316 121.7 43.0319Z" fill="#00A1E9"/>
<path id="Path 411" d="M82.1224 41.3818V42.8983H77.8574C77.3304 44.1931 77.6244 44.7812 79.0234 44.7015C79.8294 44.6548 80.6404 44.6928 81.5554 44.6928V46.2481C80.6914 46.2481 79.8774 46.2996 79.0734 46.2364C77.8394 46.1392 77.3504 46.5883 77.7494 47.9541H82.1694L82.2754 49.6358H75.7754V41.3867L82.1224 41.3818Z" fill="#00A1E9"/>
<path id="Path 412" d="M98.7003 41.3857H100.563C100.563 43.0927 100.581 44.7209 100.563 46.3482C100.582 46.7943 100.508 47.2396 100.346 47.6573C100.184 48.075 99.9364 48.4567 99.619 48.7795C99.3017 49.1023 98.9207 49.3597 98.4987 49.5362C98.0768 49.7127 97.6227 49.8047 97.1633 49.8069C94.7953 49.9138 93.1033 48.723 92.9633 46.6768C92.8463 44.9601 92.9393 43.2308 92.9393 41.3906H94.9523C94.9523 42.9518 94.9443 44.4711 94.9523 45.9914C94.9603 47.1716 95.3813 48.0523 96.7753 48.0649C98.1693 48.0775 98.6343 47.1696 98.6833 46.0323C98.7453 44.509 98.7003 42.9829 98.7003 41.3857Z" fill="#00A1E9"/>
<path id="Path 413" d="M113.473 42.907V44.6247H117.259L117.436 46.1917H113.5C113.444 46.8313 113.4 47.3037 113.345 47.9686H117.888C117.923 48.6131 117.948 49.0807 117.979 49.6513H111.569V41.3701H117.862C117.895 41.8649 117.923 42.2936 117.962 42.906L113.473 42.907Z" fill="#00A1E9"/>
<path id="Path 414" d="M73.7522 42.2039L72.9142 43.4015C72.175 43.1532 71.4152 42.9672 70.6432 42.8455C70.2862 42.8153 69.8942 43.2012 69.5172 43.3986C69.7742 43.7087 69.9692 44.1383 70.3022 44.3016C70.9129 44.5475 71.5421 44.7478 72.1842 44.9005C72.7421 45.0131 73.2391 45.3181 73.5836 45.7593C73.9281 46.2005 74.0967 46.7479 74.0582 47.3005C74.0488 47.9072 73.8105 48.4893 73.3885 48.9363C72.9664 49.3833 72.3902 49.6639 71.7692 49.7249C70.9706 49.8747 70.1468 49.8366 69.3664 49.6139C68.586 49.3912 67.8718 48.9903 67.2832 48.4447L68.1642 47.3307C68.933 47.6678 69.7379 47.9211 70.5642 48.086C71.0322 48.1297 71.5502 47.6855 72.0452 47.46C71.7324 47.0827 71.3676 46.749 70.9612 46.4684C70.3852 46.1768 69.5752 46.2021 69.1232 45.8103C68.4 45.2744 67.8637 44.5353 67.5872 43.6931C67.5108 43.1664 67.6425 42.631 67.9559 42.1949C68.2693 41.7587 68.7411 41.4542 69.2762 41.3426C70.0383 41.1235 70.8437 41.0874 71.6233 41.2374C72.4029 41.3874 73.1335 41.719 73.7522 42.2039Z" fill="#00A1E9"/>
<path id="Path 415" d="M91.4875 42.4392L90.4695 43.6164C88.2905 42.6103 87.0505 42.6443 86.1695 43.8293C85.7992 44.2805 85.5923 44.8378 85.5807 45.4149C85.5691 45.992 85.7536 46.5567 86.1055 47.0216C86.9915 48.294 88.1235 48.3417 90.5295 47.3132L91.4775 48.1881C91.1215 48.6373 90.6763 49.0124 90.1684 49.2914C89.6606 49.5703 89.1003 49.7473 88.5207 49.8119C87.9412 49.8766 87.3542 49.8275 86.7946 49.6676C86.2349 49.5077 85.7139 49.2403 85.2625 48.8812C84.346 48.1133 83.7734 47.0285 83.6662 45.857C83.5591 44.6854 83.9258 43.5194 84.6885 42.6064C85.1168 42.1504 85.6354 41.7832 86.2133 41.5269C86.7912 41.2705 87.4164 41.1304 88.0514 41.1147C88.6864 41.0991 89.318 41.2084 89.9085 41.436C90.499 41.6636 91.0361 42.0048 91.4875 42.4392Z" fill="#00A1E9"/>
<path id="Path 416" d="M28.9725 46.0062C26.3165 46.0062 23.6605 46.0325 21.0055 45.9995C18.2955 45.9655 17.0135 44.7698 16.9925 42.1831C16.9535 37.3226 16.9705 32.4525 16.9825 27.5863C16.9219 26.9595 17.0616 26.3298 17.3827 25.783C17.7037 25.2362 18.1905 24.799 18.7765 24.531C19.9765 24.0615 20.0035 23.3266 19.9925 22.3458C19.904 20.8998 20.199 19.4559 20.8494 18.1526C21.4997 16.8493 22.4835 15.7302 23.7065 14.9025C24.999 13.949 26.545 13.3745 28.1623 13.2469C29.7796 13.1192 31.4007 13.4438 32.8345 14.1822C34.3224 14.8142 35.5831 15.8627 36.4558 17.1938C37.3285 18.525 37.7736 20.0786 37.7345 21.6566C37.7485 22.9495 37.6795 24.0148 39.3345 24.706C39.8095 25.0439 40.2 25.4816 40.477 25.9865C40.754 26.4914 40.9104 27.0505 40.9345 27.6222C41.0985 32.5322 41.0264 37.4509 40.9964 42.3658C41.0385 42.8409 40.9752 43.3192 40.8108 43.7684C40.6464 44.2177 40.3848 44.6274 40.0435 44.9699C39.7022 45.3124 39.2893 45.5798 38.8327 45.7538C38.376 45.9279 37.8863 46.0047 37.3965 45.9791C34.5895 46.052 31.7795 45.9966 28.9695 45.9966L28.9725 46.0062ZM36.9845 42.2093V27.9061H20.9845V42.2151L36.9845 42.2093ZM33.8905 23.869C34.2065 21.3348 33.8065 19.1933 31.5385 17.7818C30.7344 17.2411 29.7749 16.9613 28.7973 16.9824C27.8198 17.0035 26.8741 17.3245 26.0955 17.8994C23.9295 19.3342 23.6025 21.4476 23.9955 23.869H33.8905Z" fill="#00A1E9"/>
<path id="Path 417" d="M31.7902 30.1719L34.6012 32.8937L27.9392 39.186L23.4712 34.7874L25.9932 32.3853L28.0302 34.2177L31.7902 30.1719Z" fill="#00A1E9"/>
</g>
</g>
</svg>
