<svg width="1922" height="900" viewBox="0 0 1922 900" fill="none" xmlns="http://www.w3.org/2000/svg">
<path d="M2376.6 -66.4944H-3.71484V797.247H2376.6V-66.4944Z" fill="url(#paint0_linear_3950_14494)"/>
<path d="M1959.8 383.852C2240 383.852 2467.14 169.567 2467.14 -94.7657C2467.14 -359.099 2240 -573.383 1959.8 -573.383C1679.6 -573.383 1452.46 -359.099 1452.46 -94.7657C1452.46 169.567 1679.6 383.852 1959.8 383.852Z" fill="#FFBC47"/>
<path opacity="0.17" d="M123.017 916.292L350.316 794.494C350.316 794.494 377.592 773.909 401.232 780.771C424.872 787.632 433.962 818.511 479.423 789.348C524.884 760.186 633.989 688.136 633.989 688.136C633.989 688.136 659.083 663.192 706.362 692.356C753.641 721.52 784.918 743.031 784.918 743.031C784.918 743.031 803.104 756.754 828.562 743.031C854.02 729.307 904.954 696.739 904.954 696.739C904.954 696.739 937.667 665.834 1014.95 709.578C1101.07 758.322 1412.28 916.292 1412.28 916.292H123.017Z" fill="url(#paint1_linear_3950_14494)"/>
<path opacity="0.36" d="M2343.54 800.151L1678 447.622C1678 447.622 1631.18 421.4 1577.07 458.772C1526.16 493.94 1345.23 617.186 1345.23 617.186C1345.23 617.186 1281.58 664.629 1241.58 656.05C1224.53 652.393 1197.03 635.464 1173.39 643.184C1149.75 650.904 951.537 796.717 951.537 796.717L1489.5 862.854L2343.54 800.151Z" fill="url(#paint2_linear_3950_14494)"/>
<path opacity="0.51" d="M1344.06 617.712C1344.06 617.712 1280.42 665.155 1240.42 656.577C1223.36 652.92 1195.87 635.992 1172.23 643.712C1148.59 651.432 950.38 797.246 950.38 797.246L1207.5 826.667C1279.26 775.367 1422.5 666.26 1512.27 596.173C1657.27 482.956 1584.64 454.237 1584.17 454.052C1581.44 455.644 1578.69 457.385 1575.92 459.297C1525 494.465 1344.06 617.712 1344.06 617.712Z" fill="#CD5224"/>
<path opacity="0.38" d="M1782.07 231.966C1834.5 231.966 1877 191.87 1877 142.409C1877 92.9489 1834.5 52.8533 1782.07 52.8533C1729.65 52.8533 1687.14 92.9489 1687.14 142.409C1687.14 191.87 1729.65 231.966 1782.07 231.966Z" fill="white"/>
<path d="M-3.71484 795.342L599.501 763.81L1301.5 795.342H2376.6V1452.37H-3.71484V795.342Z" fill="#D8611D"/>
<path opacity="0.14" d="M-91.0003 957.91C-280.5 731.426 408.157 757.052 645.46 779.957C882.763 802.862 979.38 907.151 1208.5 901.901C1437.62 896.651 1632.39 838.228 1790.59 848.798C1948.79 859.369 2429.33 919.147 2429.33 919.147V1223.96H-91.0003V957.91Z" fill="#3AEFFF"/>
<path d="M-16.5296 814.324C-16.5296 814.324 34.9425 783.915 247.088 789.068C459.234 794.22 600.994 853.133 713.751 842.831C826.508 832.528 885.041 785.132 1043.11 814.324C1201.18 843.516 1345.79 881.293 1449.79 884.728C1553.78 888.162 1917.5 910.946 1917.5 910.946V1238.92L-25.5 1198.97L-16.5296 814.324Z" fill="#2EBCCA"/>
<defs>
<linearGradient id="paint0_linear_3950_14494" x1="1186.44" y1="-66.4944" x2="1186.44" y2="797.247" gradientUnits="userSpaceOnUse">
<stop stop-color="#FFBC47"/>
<stop offset="0.038" stop-color="#FFC968"/>
<stop offset="0.176" stop-color="#FFBE3B"/>
<stop offset="0.774" stop-color="#FD9315"/>
<stop offset="1" stop-color="#FD8D0E"/>
</linearGradient>
<linearGradient id="paint1_linear_3950_14494" x1="767.647" y1="678.202" x2="767.647" y2="916.292" gradientUnits="userSpaceOnUse">
<stop offset="0.374" stop-color="#AB341B"/>
<stop offset="0.83" stop-color="#BF4421"/>
</linearGradient>
<linearGradient id="paint2_linear_3950_14494" x1="1647.54" y1="438.682" x2="1647.54" y2="862.854" gradientUnits="userSpaceOnUse">
<stop offset="0.374" stop-color="#AB341B"/>
<stop offset="0.83" stop-color="#BF4421"/>
</linearGradient>
</defs>
</svg>
