<svg width="43" height="30" viewBox="0 0 43 30" fill="none" xmlns="http://www.w3.org/2000/svg">
<path d="M12.0023 16.1354L5.62665 14.5528C5.31452 14.4753 4.98418 14.5527 4.73892 14.7607L3.83139 15.5304C3.38428 15.9096 3.35779 16.5903 3.77407 17.0031L9.39579 22.5778C9.70789 22.8873 10.1855 22.9567 10.5728 22.7489L39.2022 7.38559C41.5092 5.94072 42.7514 4.13463 41.5092 2.14792C40.267 0.161207 37.191 1.48569 35.298 2.14792L28.1926 5.76366C27.9689 5.87752 27.7105 5.90305 27.4688 5.83519L12.8078 1.71906C12.5504 1.64678 12.2747 1.68062 12.0424 1.81303L9.30338 3.37408C8.67528 3.73205 8.62288 4.61769 9.20438 5.04723L17.7708 11.3751C18.3432 11.7979 18.3032 12.6665 17.6943 13.035L12.7609 16.0204C12.5334 16.1581 12.2604 16.1995 12.0023 16.1354Z" stroke="#BFBEBE"/>
<line x1="23.5" y1="25.5986" x2="0.5" y2="25.5986" stroke="#BFBEBE" stroke-linecap="round"/>
</svg>
