<svg width="0" height="0" class="hidden">
  <symbol fill="none" xmlns="http://www.w3.org/2000/svg" viewBox="0 0 474 584" id="giraffe">
    <path d="M1.15759 445.817C-0.939453 431.887 -1.21677 377.84 15.4606 353.707C29.0966 333.978 50.8028 321.803 72.4769 311.631C105.476 296.144 138.716 280.804 172.953 268.229C212.619 253.661 244.123 229.611 272.883 200.133C301.801 170.494 325.461 137.639 347.26 102.908C360.102 82.4492 377.157 64.4911 392.32 45.4119C393.315 44.1661 394.347 42.9442 394.784 42.4142C392.887 37.3434 391.246 32.9578 389.604 28.5665C394.608 28.2602 399.609 27.7415 404.617 27.6985C411.452 27.6418 418.408 28.7698 425.1 27.8819C433.571 26.759 434.739 22.6662 429.689 15.6033C429.218 14.9448 428.154 14.3128 428.204 13.7347C428.557 9.5705 427.642 3.84118 430.043 1.71377C432.443 -0.413629 439.642 -0.607844 442.137 1.39781C444.633 3.40347 444.694 9.24547 444.405 13.3094C444.063 18.1028 441.823 22.7386 441.091 27.5404C440.136 33.7935 441.957 37.8751 449.918 37.6089C452.082 37.5365 454.73 40.7935 456.468 43.0291C457.484 44.3315 457.601 46.7097 457.328 48.4866C454.932 64.1333 460.182 77.4656 469.883 89.627C471.537 91.7017 473.153 94.3093 473.422 96.8076C473.853 100.818 473.147 104.943 472.92 109.02C468.027 108.001 460.965 108.597 458.64 105.656C451.816 97.0222 442.529 94.3195 432.877 90.9158C426.863 88.7963 421.597 84.4294 416.31 80.6553C407.593 74.4328 404.085 74.5715 400.273 84.2374C389.72 111.01 379.442 137.906 369.967 165.055C354.447 209.515 338.818 253.9 316.823 295.85C308.959 310.851 298.556 324.878 296.901 342.283C293.915 373.766 302.774 431.184 300.338 462.716C299.45 474.202 287.279 564.031 287.321 575.569C287.339 580.808 10.1982 582.288 2.07559 583.734C-7.01102 585.36 17.687 555.505 1.15759 445.817Z" fill="var(--color,#BEBEBE)"></path>
  </symbol>
  <symbol fill="none" xmlns="http://www.w3.org/2000/svg" viewBox="0 0 572 443" id="elephant">
    <path d="M392.813 166.281C370.406 159.473 355.064 146.02 344.585 126.917C338.478 115.783 341.166 106.825 352.32 100.314C354.906 98.8044 357.646 97.2802 360.526 96.5428C384.085 90.5014 404.29 77.7664 425.03 66.1367C434.813 60.6519 445.024 58.7421 456.075 60.9132C471.741 63.9935 487.321 67.6716 503.117 69.8845C512.289 71.1687 521.891 70.8541 531.154 69.9141C549.211 68.0829 558.28 57.5837 557.123 39.9634C556.618 32.2992 554.428 24.7126 552.669 17.1674C551.648 12.7827 549.969 8.54145 548.627 4.37383C560.669 -2.06409 562.868 -1.15403 566.415 10.2683C575.433 39.3248 573.124 67.3958 556.332 93.0558C544.24 111.537 530.445 129.035 516.461 146.244C511.331 152.559 507.437 158.585 505.902 166.527C503.146 180.782 499.044 194.947 504.144 209.372C506.673 216.746 509.76 223.927 513.378 230.859C541.835 282.873 534.203 335.267 528.132 368.032C528.755 400.982 512.401 418.309 476.77 419.99C448.965 421.304 78.57 439.705 21.4858 442.012C-1.22934 442.929 -4.18078 439.189 8.12815 420.64C28.5868 389.814 50.4519 359.795 73.1481 330.477C85.5358 314.479 96.129 299.199 99.3452 278.315C103.057 254.2 113.187 231.68 130.6 212.796C144.388 197.843 161.048 189.488 181.244 186.651C231.08 179.65 281.285 178.073 331.504 176.827C349.809 176.376 367.853 174.923 385.236 168.892C387.759 168.015 390.285 167.145 392.813 166.281Z" fill="var(--color,#BEBEBE)"></path>
  </symbol>
</svg>