<svg width="29" height="28" viewBox="0 0 29 28" fill="none" xmlns="http://www.w3.org/2000/svg">
<g id="twemoji:flag-israel">
<g clip-path="url(#clip0_7002_1110)">
<path id="Vector" d="M18.4913 15.2495L17.9025 16.2608H19.0801L18.4913 15.2495ZM15.1298 18.522L15.7187 17.5108H14.541L15.1298 18.522Z" fill="#EDECEC"/>
<path id="Vector_2" d="M-7.56543 22.7495H37.8259V5.24951H-7.56543V22.7495ZM-7.19473 0.874512H37.4564C37.0798 -0.048568 36.4337 -0.839134 35.601 -1.39589C34.7682 -1.95264 33.7868 -2.25021 32.7824 -2.25049H-2.52195C-3.52614 -2.24997 -4.50731 -1.95227 -5.33979 -1.39554C-6.17227 -0.8388 -6.81816 -0.0483706 -7.19473 0.874512Z" fill="#EEEEEE"/>
<path id="Vector_3" d="M19.0803 11.7383H17.9026L18.4915 12.7496L19.0803 11.7383ZM12.3573 11.7383H11.1797L11.7685 12.7496L12.3573 11.7383ZM16.4463 16.2608L17.7639 13.9996L16.4463 11.7383H13.8136L12.496 13.9996L13.8136 16.2608H16.4463ZM11.7685 15.2496L11.1797 16.2608H12.3573L11.7685 15.2496ZM15.13 9.47705L14.5412 10.4883H15.7188L15.13 9.47705Z" fill="#EDECEC"/>
<path id="Vector_4" d="M-7.19473 0.874512C-7.43873 1.47008 -7.56459 2.1067 -7.56543 2.74951L-7.56543 5.24951H37.8259V2.74951C37.8259 2.08576 37.6922 1.45451 37.4552 0.874512H-7.19473Z" fill="#303030"/>
<path id="Vector_5" d="M-7.19434 27.1245H37.4568C37.0802 28.0476 36.4341 28.8382 35.6014 29.3949C34.7686 29.9517 33.7872 30.2492 32.7828 30.2495H-2.52155C-3.52574 30.249 -4.50691 29.9513 -5.33939 29.3946C-6.17188 28.8378 -6.81777 28.0474 -7.19434 27.1245Z" fill="#EEEEEE"/>
<path id="Vector_6" d="M-7.19473 27.1245C-7.43873 26.529 -7.56459 25.8924 -7.56543 25.2495L-7.56543 22.7496H37.8259V25.2495C37.8259 25.9133 37.6922 26.5445 37.4552 27.1245H-7.19473ZM13.0851 17.5108L15.1302 21.0221L17.1754 17.5108H21.2644L19.2205 13.9996L21.2656 10.4883H17.1766L15.1302 6.97705L13.0851 10.4883H8.99609L11.04 13.9996L8.99483 17.5108H13.0851ZM15.1302 18.5221L14.5414 17.5108H15.719L15.1302 18.5221ZM19.0805 11.7383L18.4917 12.7496L17.9029 11.7396L19.0805 11.7383ZM18.4917 15.2496L19.0805 16.2596H17.9029L18.4917 15.2496ZM15.1302 9.47705L15.719 10.4883H14.5414L15.1302 9.47705ZM13.8139 11.7383H16.4478L17.7642 13.9996L16.4478 16.2608H13.8139L12.4963 13.9996L13.8139 11.7383ZM12.3576 11.7383L11.7687 12.7496L11.1799 11.7396L12.3576 11.7383ZM11.7687 15.2496L12.3576 16.2596H11.1799L11.7687 15.2496Z" fill="#303030"/>
</g>
</g>
<defs>
<clipPath id="clip0_7002_1110">
<rect y="0.499512" width="29" height="27" rx="5" fill="white"/>
</clipPath>
</defs>
</svg>
