<svg width="28" height="27" viewBox="0 0 28 27" fill="none" xmlns="http://www.w3.org/2000/svg">
<path id="Polygon 2" d="M11.8831 1.61035C12.0216 1.21786 12.2771 0.878248 12.6144 0.638103C12.9517 0.397958 13.3543 0.269043 13.7671 0.269043C14.1799 0.269043 14.5825 0.397958 14.9198 0.638103C15.2571 0.878248 15.5126 1.21786 15.6511 1.61035L17.6811 7.35907C17.8167 7.74327 18.0644 8.07698 18.3916 8.31627C18.7188 8.55557 19.1102 8.68921 19.5141 8.6996L25.5701 8.85404C25.9843 8.86466 26.3851 9.0049 26.717 9.25538C27.0489 9.50587 27.2955 9.85423 27.4227 10.2523C27.55 10.6504 27.5516 11.0786 27.4273 11.4776C27.3031 11.8767 27.0591 12.2269 26.7291 12.4799L21.9491 16.1452C21.625 16.3938 21.3837 16.7363 21.2575 17.127C21.1314 17.5177 21.1263 17.9379 21.2431 18.3316L22.9631 24.1288C23.0817 24.5285 23.0747 24.9555 22.943 25.351C22.8114 25.7465 22.5616 26.0911 22.228 26.3375C21.8944 26.5838 21.4934 26.7198 21.0801 26.7266C20.6668 26.7335 20.2615 26.6109 19.9201 26.3758L14.8941 22.9154C14.5619 22.6867 14.1692 22.5644 13.7671 22.5644C13.365 22.5644 12.9723 22.6867 12.6401 22.9154L7.61409 26.3768C7.27266 26.6134 6.86687 26.7373 6.45275 26.7312C6.03862 26.7251 5.63659 26.5893 5.30216 26.3427C4.96773 26.0961 4.7174 25.7507 4.58573 25.3543C4.45406 24.9579 4.44754 24.5301 4.56709 24.1298L6.28709 18.3326C6.40383 17.939 6.39879 17.5187 6.27263 17.128C6.14648 16.7373 5.90522 16.3948 5.58109 16.1462L0.801089 12.4809C0.470293 12.2276 0.225787 11.8767 0.101491 11.4768C-0.0228052 11.0769 -0.0207297 10.6479 0.107429 10.2493C0.235588 9.85063 0.483477 9.50213 0.816707 9.25212C1.14994 9.00211 1.55199 8.86298 1.96709 8.85404L8.02309 8.6996C8.42701 8.68921 8.81833 8.55557 9.14553 8.31627C9.47273 8.07698 9.72046 7.74327 9.85609 7.35907L11.8831 1.61035Z" fill="#F4B82D"/>
</svg>
