<svg width="202" height="203" viewBox="0 0 202 203" fill="none" xmlns="http://www.w3.org/2000/svg">
<path d="M35.2234 90.3787L42.324 86.7528L36.0556 85.645L36.423 83.5537L46.1715 85.2721L45.8149 87.2769L38.7305 90.8921L44.9827 91.9945L44.6098 94.0966L34.8613 92.3781L35.2126 90.3733L35.2234 90.3787Z" fill="black"/>
<path d="M45.8581 74.8644C48.0358 75.6696 48.9382 77.75 48.0952 80.0304C47.2468 82.3271 45.2096 83.3214 43.0319 82.5216C40.8433 81.7164 39.9625 79.6414 40.8109 77.3447C41.6539 75.0643 43.6695 74.0592 45.8581 74.8644ZM43.8154 80.4844C44.9826 80.9167 46.0472 80.479 46.4417 79.4198C46.8307 78.3715 46.3012 77.3501 45.1339 76.9178C43.9667 76.4855 42.9022 76.9178 42.5131 77.9716C42.124 79.0307 42.6482 80.0575 43.8154 80.4898V80.4844Z" fill="black"/>
<path d="M52.2673 70.9844L51.4891 70.5521C51.7971 71.3086 51.7053 72.1948 51.1865 73.1189C50.3921 74.5401 49.0466 74.9183 47.8361 74.2483C46.5878 73.5512 46.3501 72.238 47.2471 70.6007L48.2684 68.7742L48.1441 68.7039C47.4416 68.3095 46.7716 68.5526 46.2582 69.4659C45.9286 70.0603 45.7394 70.8601 45.7394 71.7679L44.0967 71.6328C44.1561 70.3683 44.3561 69.3632 45.0045 68.2068C45.9988 66.4289 47.4579 65.8994 48.9601 66.7207L53.3048 69.1254L52.2619 70.9898L52.2673 70.9844ZM49.9868 69.7307L49.3924 69.401L48.5602 70.8979C48.1549 71.6274 48.1766 72.1084 48.7061 72.4056C49.2141 72.6866 49.7653 72.4812 50.1219 71.8382C50.5705 71.033 50.4894 70.163 49.9814 69.7361L49.9868 69.7307Z" fill="black"/>
<path d="M55.3745 58.507L59.1248 61.4683L57.7738 63.1759L54.5261 60.6091C53.7696 60.0147 52.9536 60.0904 52.3754 60.8199C51.7108 61.6845 51.9431 62.7112 52.8185 63.4029L55.7582 65.7265L54.4073 67.4342L46.1772 60.9334L47.5282 59.2258L50.8461 61.8466C50.4355 60.8361 50.63 59.8364 51.3541 58.8961C52.4133 57.556 53.975 57.3993 55.3745 58.507Z" fill="black"/>
<path d="M63.4042 44.7002L64.5714 46.1917L62.1883 48.056L67.1166 54.3568L65.3604 55.7348L60.4321 49.4339L58.0598 51.2875L56.8926 49.796L63.4042 44.7002Z" fill="black"/>
<path d="M74.3958 45.2893C75.5576 47.2941 74.9253 49.4773 72.8232 50.6931C70.705 51.9198 68.5002 51.3848 67.3384 49.38C66.1657 47.359 66.8142 45.2029 68.9325 43.9762C71.0346 42.7549 73.2285 43.2683 74.3958 45.2839V45.2893ZM69.2351 48.3155C69.862 49.3908 70.9589 49.7367 71.937 49.1693C72.9043 48.6073 73.1475 47.4833 72.526 46.4079C71.8992 45.3325 70.8022 44.9867 69.8349 45.5487C68.8568 46.1161 68.6083 47.2401 69.2351 48.3155Z" fill="black"/>
<path d="M81.7233 38.2967L84.4252 45.4081L82.4042 46.1754L81.9287 44.9217C81.7828 46.0079 81.1289 46.7536 80.0536 47.1589C78.481 47.7533 77.0923 47.0887 76.4546 45.4081L74.7578 40.9391L76.7951 40.1664L78.2703 44.0517C78.6107 44.9488 79.3348 45.2946 80.1508 44.9866C81.1235 44.6029 81.4261 43.6086 81.037 42.5765L79.7023 39.0586L81.7233 38.2913V38.2967Z" fill="black"/>
<path d="M89.4402 36.3352L89.8995 38.3347C88.354 38.5454 87.6029 39.5721 87.8893 40.8258L88.7053 44.3923L86.5816 44.8787L84.8848 37.4646L87.0085 36.9783L87.3165 38.313C87.6191 37.2863 88.3432 36.6 89.4456 36.3298L89.4402 36.3352Z" fill="black"/>
<path d="M94.282 37.2917C93.7741 37.3458 93.4282 37.5565 93.4715 37.9456C93.5958 39.0858 97.5243 38.0753 97.7999 40.7502C97.9674 42.2957 96.6921 43.2575 94.9737 43.4413C93.7525 43.571 92.515 43.3386 91.5855 42.7388L92.1313 41.1987C92.9851 41.7175 94.0335 41.9444 94.8602 41.858C95.4114 41.7985 95.7951 41.5716 95.7519 41.1663C95.6222 39.9558 91.7693 41.0258 91.4829 38.3671C91.3153 36.8054 92.5636 35.8597 94.2064 35.6814C95.2493 35.5679 96.3463 35.7625 97.2487 36.2056L96.6651 37.7619C95.7843 37.389 94.9143 37.2107 94.282 37.2809V37.2917Z" fill="black"/>
<path d="M109.639 35.5732C107.953 35.3679 106.494 36.5189 106.284 38.2265C106.078 39.9395 107.224 41.4148 108.905 41.6201C109.791 41.7282 110.812 41.3932 111.601 40.7771L112.736 42.3496C111.569 43.2899 109.985 43.7979 108.553 43.6249C105.619 43.2683 103.668 40.8258 104.009 37.9779C104.349 35.1409 106.867 33.282 109.845 33.6441C111.261 33.817 112.676 34.6276 113.519 35.7408L112.039 37.1566C111.461 36.3028 110.553 35.6813 109.639 35.5678V35.5732Z" fill="black"/>
<path d="M121.236 43.2629L115.989 41.7607C115.968 42.755 116.519 43.5007 117.459 43.7709C118.151 43.9708 118.88 43.8844 119.529 43.5277L120.312 44.9597C119.345 45.565 118.134 45.7325 116.816 45.3542C114.476 44.6842 113.428 42.7658 114.06 40.5502C114.708 38.2968 116.67 37.2377 118.896 37.8753C121.463 38.6103 122.177 40.6529 121.236 43.2629ZM119.631 41.4635C119.88 40.4908 119.431 39.6856 118.469 39.41C117.545 39.1452 116.74 39.5938 116.303 40.5124L119.631 41.4635Z" fill="black"/>
<path d="M127.931 38.1293L123.889 47.813L121.879 46.9754L125.921 37.2917L127.931 38.1293Z" fill="black"/>
<path d="M133.686 49.4285L128.931 46.7482C128.682 47.7101 129.045 48.5639 129.893 49.0449C130.52 49.3961 131.255 49.488 131.963 49.288L132.39 50.8606C131.309 51.2226 130.093 51.1091 128.899 50.4337C126.78 49.2394 126.197 47.1265 127.332 45.1217C128.483 43.0791 130.639 42.5063 132.66 43.6411C134.989 44.9542 135.205 47.1049 133.686 49.4285ZM132.546 47.3102C133.016 46.424 132.768 45.5378 131.892 45.0406C131.055 44.5705 130.169 44.8191 129.525 45.608L132.546 47.3102Z" fill="black"/>
<path d="M142.16 55.2053C140.722 57.0047 138.663 57.3344 136.999 56.005C136.172 55.3458 135.783 54.492 135.832 53.5517L135.146 54.4109L133.443 53.0492L139.993 44.8516L141.695 46.2133L139.198 49.3421C140.095 49.0828 141.014 49.2719 141.819 49.9149C143.489 51.2497 143.635 53.3734 142.171 55.2107L142.16 55.2053ZM140.479 53.7733C141.241 52.8222 141.187 51.6604 140.317 50.9633C139.442 50.2662 138.296 50.4553 137.529 51.4172C136.745 52.4007 136.821 53.5463 137.691 54.2488C138.561 54.9459 139.701 54.7514 140.474 53.7787L140.479 53.7733Z" fill="black"/>
<path d="M149.65 57.437L148.164 58.8474C147.196 57.6208 145.926 57.4965 144.991 58.3827L142.333 60.9009L140.836 59.3176L146.359 54.0867L147.856 55.67L146.861 56.6157C147.899 56.3563 148.861 56.6319 149.65 57.4424V57.437Z" fill="black"/>
<path d="M147.374 67.0774L148.093 66.5479C147.277 66.5154 146.51 66.0669 145.878 65.2131C144.91 63.9054 145.121 62.522 146.24 61.6952C147.391 60.8468 148.688 61.1765 149.806 62.6679L151.049 64.3539L151.162 64.2674C151.811 63.7865 151.87 63.0786 151.249 62.2356C150.849 61.6898 150.195 61.1873 149.374 60.809L150.179 59.3716C151.308 59.9444 152.135 60.5496 152.924 61.6196C154.135 63.2569 154.01 64.8078 152.638 65.8345L148.65 68.7904L147.385 67.072L147.374 67.0774ZM149.46 65.5211L150.006 65.1158L148.99 63.7379C148.493 63.0678 148.044 62.8895 147.558 63.2461C147.093 63.592 147.05 64.181 147.488 64.7754C148.034 65.5157 148.86 65.8021 149.46 65.5211Z" fill="black"/>
<path d="M152.297 74.4536C151.741 74.1186 151.222 73.5944 150.881 72.973C150.222 71.7841 150.406 70.5034 151.778 69.7469L154.859 68.0447L154.345 67.1152L155.658 66.3911L156.172 67.3206L158.004 66.3101L159.052 68.2014L157.22 69.2119L158.22 71.0168L156.896 71.7463L155.896 69.9414L153.151 71.4599C152.594 71.7679 152.502 72.1246 152.74 72.5299C152.875 72.7784 153.129 73.027 153.481 73.2864L152.303 74.4536H152.297Z" fill="black"/>
<path d="M160.37 75.0049L153.394 78.0419L152.524 76.0479L159.5 73.0109L160.37 75.0049ZM162.343 74.1133C161.775 74.3619 161.17 74.1457 160.921 73.5783C160.673 73.0055 160.921 72.4219 161.494 72.1733C162.078 71.9193 162.667 72.1409 162.915 72.7137C163.164 73.2865 162.926 73.8647 162.343 74.1187V74.1133Z" fill="black"/>
<path d="M161.041 86.018L156.458 87.3689L155.842 85.2777L159.819 84.105C160.744 83.8348 161.149 83.1215 160.889 82.2299C160.571 81.187 159.598 80.7979 158.528 81.1113L154.934 82.1705L154.318 80.0792L161.614 77.9285L162.23 80.0197L160.954 80.3926C162.013 80.6412 162.705 81.3815 163.056 82.5163C163.537 84.1429 162.759 85.51 161.052 86.0126L161.041 86.018Z" fill="black"/>
<path d="M165.218 95.4151L158.366 96.2419C156.22 96.5012 154.659 95.053 154.367 92.6375C154.21 91.3622 154.48 90.1734 154.967 89.2331L156.577 89.8491C156.166 90.5949 155.999 91.4271 156.101 92.2863C156.253 93.5237 157.004 94.2262 158.031 94.1019L158.884 93.9993C158.122 93.5778 157.636 92.8537 157.512 91.8594C157.274 89.9086 158.571 88.3847 160.765 88.1199C162.899 87.8605 164.504 89.0061 164.737 90.9299C164.877 91.9512 164.564 92.7888 163.926 93.394L164.953 93.2698L165.212 95.4151H165.218ZM161.392 93.6967C162.559 93.5562 163.272 92.7402 163.143 91.6918C163.018 90.6381 162.116 90.0221 160.959 90.1464C159.808 90.2977 159.095 91.0974 159.225 92.1674C159.355 93.2211 160.241 93.8372 161.392 93.7021V93.6967Z" fill="black"/>
<path d="M101.288 147.301C128.161 147.301 149.945 125.516 149.945 98.6435C149.945 71.7709 128.161 49.9863 101.288 49.9863C74.4154 49.9863 52.6309 71.7709 52.6309 98.6435C52.6309 125.516 74.4154 147.301 101.288 147.301Z" stroke="black" stroke-width="3" stroke-miterlimit="10"/>
<path d="M101.288 172.116C141.851 172.116 174.733 139.233 174.733 98.6709C174.733 58.1084 141.851 25.2261 101.288 25.2261C60.7256 25.2261 27.8433 58.1084 27.8433 98.6709C27.8433 139.233 60.7256 172.116 101.288 172.116Z" stroke="black" stroke-width="5" stroke-miterlimit="10"/>
<path d="M89.6258 80.0848C89.6258 78.3147 88.2848 77.2914 85.9212 77.2914C83.2826 77.2914 79.9494 78.8724 76.9394 81.433L73.7461 75.1479C77.9138 72.0732 82.4529 70.2109 87.1754 70.2109C93.7501 70.2109 98.5208 73.6542 98.5208 78.8239C98.5208 82.3641 95.834 86.0401 92.2258 89.7161L85.5594 96.4183H99.4518V103.261H74.7253L74.6771 97.6258L86.4856 85.429C88.2897 83.5668 89.6355 81.4718 89.6355 80.0751L89.6258 80.0848Z" fill="black"/>
<path d="M129.748 86.7142C129.748 97.3581 125.158 103.261 116.919 103.261C108.681 103.261 104.042 97.3581 104.042 86.7142C104.042 76.0704 108.583 70.2109 116.919 70.2109C125.255 70.2109 129.748 76.0704 129.748 86.7142ZM112.237 86.7142C112.237 94.1523 113.593 97.2661 116.919 97.2661C120.246 97.2661 121.553 94.1523 121.553 86.7142C121.553 79.2761 120.197 76.1624 116.919 76.1624C113.641 76.1624 112.237 79.2325 112.237 86.7142Z" fill="black"/>
<path d="M80.9306 119.28V122.541H78.5563V119.338L74.6641 112.442H77.0535L79.7434 116.972L82.3733 112.442H84.7627L80.9306 119.28Z" fill="black"/>
<path d="M93.7951 112.442V114.332H88.7323V116.525H93.2821V118.415H88.7323V120.651H93.9436V122.541H86.5991V112.442H93.7951Z" fill="black"/>
<path d="M103.306 120.579H98.2579L97.401 122.541H94.8613L99.5978 112.442H102.137L106.796 122.541H104.163L103.306 120.579ZM102.511 118.746L100.798 114.822L99.0681 118.746H102.511Z" fill="black"/>
<path d="M114.197 122.541L112.523 119.655H110.096V122.541H107.714V112.442H112.297C115.056 112.442 116.624 113.711 116.624 115.948C116.624 117.506 115.93 118.631 114.649 119.208L116.895 122.541H114.197ZM110.096 117.751H112.297C113.609 117.751 114.362 117.174 114.362 116.02C114.362 114.866 113.609 114.332 112.297 114.332H110.096V117.751Z" fill="black"/>
<path d="M122.537 114.357C121.703 114.357 121.136 114.626 121.136 115.165C121.136 116.995 127.009 115.974 126.994 119.548C126.994 121.491 125.12 122.541 122.679 122.541C120.868 122.541 119.057 121.916 117.813 120.966L118.805 119.137C119.939 120.044 121.545 120.626 122.71 120.626C123.734 120.626 124.348 120.285 124.348 119.675C124.348 117.803 118.474 118.895 118.474 115.378C118.474 113.577 120.191 112.442 122.742 112.442C124.285 112.442 125.828 112.867 126.931 113.52L125.97 115.378C124.805 114.754 123.419 114.357 122.537 114.357Z" fill="black"/>
<mask id="mask0_7005_5837" style="mask-type:luminance" maskUnits="userSpaceOnUse" x="36" y="103" width="12" height="12">
<path d="M47.8447 103.261H36.1055V114.619H47.8447V103.261Z" fill="white"/>
</mask>
<g mask="url(#mask0_7005_5837)">
<path d="M41.9752 112.391L45.5983 114.625L44.6378 110.422L47.8341 107.599L43.6187 107.231L41.9752 103.261L40.3317 107.22L36.1162 107.594L39.3125 110.417L38.352 114.619L41.9752 112.386V112.391Z" fill="black"/>
</g>
<mask id="mask1_7005_5837" style="mask-type:luminance" maskUnits="userSpaceOnUse" x="153" y="103" width="13" height="12">
<path d="M165.552 103.261H153.813V114.619H165.552V103.261Z" fill="white"/>
</mask>
<g mask="url(#mask1_7005_5837)">
<path d="M159.683 112.391L163.306 114.625L162.351 110.423L165.547 107.599L161.331 107.232L159.683 103.272L158.034 107.232L153.818 107.599L157.015 110.423L156.059 114.625L159.683 112.391Z" fill="black"/>
</g>
<path fill-rule="evenodd" clip-rule="evenodd" d="M20.6282 150.952L25.7226 164.689C25.9722 165.362 25.9722 166.102 25.7226 166.775L20.6282 180.512H37.978V162.855V150.952H20.6282ZM19.1908 148.952C18.4942 148.952 18.011 149.646 18.2532 150.299L23.8474 165.384C23.9306 165.608 23.9306 165.855 23.8474 166.079L18.2532 181.164C18.011 181.817 18.4942 182.512 19.1908 182.512H38.978C39.5303 182.512 39.978 182.064 39.978 181.512V162.855V149.952C39.978 149.399 39.5303 148.952 38.978 148.952H19.1908Z" fill="black"/>
<path d="M39.0884 141.363C39.0884 140.258 39.9838 139.363 41.0884 139.363H162.435C163.54 139.363 164.435 140.258 164.435 141.363V172.214C164.435 173.318 163.54 174.214 162.435 174.214H41.0884C39.9838 174.214 39.0884 173.318 39.0884 172.214V141.363Z" fill="white" stroke="black" stroke-width="3"/>
<path d="M61.5812 154.462C60.4712 153.802 59.1512 153.382 58.3112 153.382C57.5162 153.382 56.9762 153.667 56.9762 154.237C56.9762 156.172 62.5712 155.092 62.5562 158.872C62.5562 160.927 60.7712 162.037 58.4462 162.037C56.7212 162.037 54.9962 161.377 53.8112 160.372L54.7562 158.437C55.8362 159.397 57.3662 160.012 58.4762 160.012C59.4512 160.012 60.0362 159.652 60.0362 159.007C60.0362 157.027 54.4412 158.182 54.4412 154.462C54.4412 152.557 56.0762 151.357 58.5062 151.357C59.9762 151.357 61.4462 151.807 62.4962 152.497L61.5812 154.462ZM64.967 151.462H67.337V161.962H64.967V151.462ZM70.4192 151.462H72.5792L77.6792 158.212V151.462H79.9292V161.962H77.7692L72.6842 155.227V161.962H70.4192V151.462ZM90.5954 154.807C89.8754 153.982 88.8404 153.442 87.8654 153.442C86.0654 153.442 84.6704 154.837 84.6704 156.667C84.6704 158.497 86.0654 159.907 87.8654 159.907C88.8104 159.907 89.8454 159.427 90.5954 158.677L91.9904 160.192C90.8804 161.332 89.2754 162.067 87.7454 162.067C84.6104 162.067 82.2404 159.742 82.2404 156.697C82.2404 153.667 84.6554 151.387 87.8354 151.387C89.3504 151.387 90.9405 152.062 91.9755 153.127L90.5954 154.807ZM94.1555 151.462H102.15V153.427H96.5255V155.707H101.58V157.672H96.5255V159.997H102.315V161.962H94.1555V151.462ZM113.622 156.322C114.297 155.647 114.762 154.927 114.762 154.417C114.762 153.742 114.237 153.352 113.322 153.352C112.422 153.352 111.342 153.862 110.397 154.672L109.467 152.902C110.757 151.927 112.182 151.342 113.667 151.342C115.767 151.342 117.252 152.407 117.252 154.057C117.252 155.182 116.397 156.352 115.242 157.552L112.797 159.967H117.627V161.962H109.737V160.327L113.622 156.322ZM123.66 151.372C126.27 151.372 127.71 153.277 127.71 156.697C127.71 160.132 126.27 162.022 123.66 162.022C121.035 162.022 119.595 160.132 119.595 156.697C119.595 153.277 121.035 151.372 123.66 151.372ZM123.66 153.112C122.445 153.112 121.89 154.192 121.89 156.697C121.89 159.187 122.445 160.282 123.66 160.282C124.86 160.282 125.415 159.187 125.415 156.697C125.415 154.192 124.86 153.112 123.66 153.112ZM133.668 151.372C136.278 151.372 137.718 153.277 137.718 156.697C137.718 160.132 136.278 162.022 133.668 162.022C131.043 162.022 129.603 160.132 129.603 156.697C129.603 153.277 131.043 151.372 133.668 151.372ZM133.668 153.112C132.453 153.112 131.898 154.192 131.898 156.697C131.898 159.187 132.453 160.282 133.668 160.282C134.868 160.282 135.423 159.187 135.423 156.697C135.423 154.192 134.868 153.112 133.668 153.112ZM142.836 151.447H145.086L141.951 157.672H144.396V155.347H146.571L146.586 157.672H148.011V159.577H146.571V161.962H144.396V159.577H139.491V157.927L142.836 151.447Z" fill="black"/>
<path fill-rule="evenodd" clip-rule="evenodd" d="M165.546 149.661V164.441V179.221H182.232L176.131 165.673C175.779 164.889 175.779 163.992 176.131 163.209L182.232 149.661H165.546ZM164.546 147.661C163.994 147.661 163.546 148.108 163.546 148.661V164.441V180.221C163.546 180.773 163.994 181.221 164.546 181.221H183.779C184.505 181.221 184.989 180.472 184.691 179.81L177.955 164.851C177.837 164.59 177.837 164.291 177.955 164.03L184.691 149.071C184.989 148.409 184.505 147.661 183.779 147.661H164.546Z" fill="black"/>
</svg>
