<svg width="1063" height="832" viewBox="0 0 1063 832" fill="none" xmlns="http://www.w3.org/2000/svg">
<g clip-path="url(#clip0_5220_13207)">
<g opacity="0.32">
<path d="M863.87 420.375C864.534 408.457 860.368 362.885 844.068 343.93C830.738 328.435 811.091 319.972 791.636 313.203C762.014 302.89 732.192 292.722 701.745 284.967C666.468 275.987 637.433 258.327 610.31 235.872C583.041 213.294 560.03 187.563 538.462 160.105C525.757 143.925 509.634 130.212 495.047 115.388C494.091 114.425 493.103 113.477 492.687 113.068C493.906 108.636 494.955 104.805 496.012 100.966C491.684 101.12 487.349 101.105 483.037 101.482C477.158 101.999 471.273 103.533 465.449 103.34C458.074 103.093 456.739 99.7478 460.504 93.3729C460.851 92.7794 461.715 92.155 461.63 91.677C460.99 88.1928 461.306 83.2902 459.069 81.6946C456.832 80.0989 450.63 80.5383 448.647 82.4346C446.665 84.3309 447.089 89.2643 447.668 92.6637C448.354 96.6721 450.653 100.395 451.679 104.381C453.006 109.568 451.779 113.161 444.914 113.6C443.047 113.716 441.041 116.683 439.73 118.711C438.966 119.89 439.059 121.91 439.437 123.382C442.769 136.371 439.344 148.041 432.001 159.103C430.751 160.992 429.571 163.32 429.548 165.447C429.501 168.862 430.45 172.285 430.975 175.7C435.094 174.435 441.211 174.351 442.97 171.676C448.131 163.836 455.891 160.784 463.906 157.114C468.897 154.825 473.07 150.709 477.305 147.093C484.286 141.127 487.318 140.95 491.375 148.782C502.63 170.473 513.653 192.288 524.013 214.381C540.977 250.564 558.032 286.679 580.357 320.203C588.341 332.19 598.423 343.151 601.262 357.681C606.399 383.967 603.468 433.101 608.135 459.472C609.832 469.077 627.62 543.78 628.531 553.508C628.94 557.925 798.555 510.44 843.69 529.604C843.69 474.249 858.609 514.202 863.87 420.382V420.375Z" fill="#D2D2D2"/>
</g>
<path opacity="0.37" d="M458.776 285.006C478.123 279.24 491.368 267.847 500.416 251.674C505.693 242.247 503.371 234.662 493.736 229.15C491.499 227.871 489.138 226.583 486.654 225.959C466.313 220.84 448.871 210.056 430.959 200.213C422.512 195.572 413.695 193.953 404.153 195.788C390.63 198.393 377.177 201.508 363.539 203.388C355.616 204.475 347.332 204.206 339.332 203.412C323.742 201.862 288.682 180.918 286.545 160.352C286.152 156.559 293.557 145.613 293.511 141.898C293.364 130.258 276.609 125.009 274.681 149.884C272.691 175.615 301.557 201.276 316.051 222.999C326.488 238.647 339.941 253.463 352.022 268.04C356.449 273.389 359.813 278.492 361.14 285.214C363.523 297.285 367.064 309.28 362.659 321.49C360.476 327.734 357.807 333.816 354.683 339.682C330.114 383.728 336.702 428.091 341.947 455.834C341.407 483.738 355.532 498.408 386.295 499.834C410.301 500.944 730.101 516.523 779.378 518.48C798.995 519.259 801.541 516.091 790.911 500.381C773.246 474.28 754.37 448.857 734.776 424.036C724.084 410.485 714.936 397.55 712.159 379.867C708.957 359.447 700.209 340.376 685.175 324.389C673.272 311.723 658.885 304.655 641.444 302.25C598.415 296.322 555.07 294.988 511.71 293.932C495.904 293.547 480.329 292.321 465.318 287.21C463.142 286.47 460.959 285.73 458.776 284.998V285.006Z" fill="#D2D2D2"/>
<path d="M58.5415 730.233H381.258C381.258 730.233 342.718 727.357 316.83 713.559C290.942 699.761 271.958 706.09 254.701 703.214C237.445 700.339 191.686 668.148 168.991 668.148C120.593 668.148 58.5415 730.233 58.5415 730.233Z" fill="#EFEFEF"/>
<path d="M544.255 832H1063C1063 832 1001.05 827.383 959.439 805.205C917.83 783.028 887.313 793.196 859.573 788.57C831.834 783.953 758.28 732.206 721.793 732.206C643.997 732.206 544.255 832 544.255 832Z" fill="#EFEFEF"/>
<path opacity="0.37" d="M636.816 53.7436L558.279 54.4065C558.279 54.4065 554.044 43.0365 565.646 38.4576C572.481 35.7597 576.291 39.1206 576.291 39.1206C576.291 39.1206 581.984 22.2082 601.64 25.0141C616.844 27.1878 618.194 37.1241 618.194 37.1241C618.194 37.1241 638.813 31.8052 636.816 53.7436Z" fill="#D2D2D2"/>
<path opacity="0.37" d="M102.165 37.4247L0.971987 38.2804C0.971987 38.2804 -4.48954 23.6265 10.4602 17.7218C19.2619 14.2453 24.1758 18.5775 24.1758 18.5775C24.1758 18.5775 31.5118 -3.21442 56.8369 0.400865C76.4228 3.19905 78.1662 16.0105 78.1662 16.0105C78.1662 16.0105 104.733 9.15771 102.165 37.4247Z" fill="#D2D2D2"/>
<path d="M272.397 416.127H920.584V508.298C920.584 508.298 941.681 625.282 615.563 625.282C289.445 625.282 276.447 557.925 276.447 508.298C276.447 458.67 272.397 416.127 272.397 416.127Z" fill="#EFEFEF"/>
<g opacity="0.37">
<path d="M252.488 119.181L360.623 180.363L355.817 189.058L245.337 132.139L252.488 119.181Z" fill="#D2D2D2"/>
<path d="M142.37 47.2376L292.516 138.468C291.559 144.742 288.512 150.439 283.259 155.503L126.788 78.033C123.779 66.8557 132.195 51.431 142.378 47.2376H142.37Z" fill="#D2D2D2"/>
<path d="M127.976 76.8613C127.976 76.8613 135.003 75.0807 140.033 65.5453C145.062 56.0099 142.602 49.4808 142.602 49.4808C142.602 49.4808 134.618 52.0246 130.136 61.8837C125.747 71.5193 127.984 76.8536 127.984 76.8536L127.976 76.8613Z" fill="#D2D2D2"/>
<path d="M150.014 51.4542C150.176 51.4156 150.832 53.4275 150.948 56.827C151.064 60.1802 150.47 65.0596 147.824 69.6462C145.247 74.1479 141.838 77.5936 138.929 79.382C136.029 81.2166 133.915 81.6175 133.877 81.471C133.784 81.2475 135.728 80.4997 138.335 78.5341C140.966 76.6069 144.067 73.2538 146.551 68.9139C149.019 64.6357 149.76 60.0645 149.906 56.8193C150.061 53.5432 149.783 51.4927 150.014 51.4542Z" fill="#D2D2D2"/>
<path d="M126.687 77.532C126.595 77.3084 128.516 76.4913 131.185 74.5565C133.846 72.6448 137.202 69.4381 139.508 65.0057C141.853 60.5887 142.601 56.0099 142.694 52.7415C142.949 49.4037 141.876 47.6308 142.007 47.5305C142.077 47.4766 142.517 47.8235 142.941 48.7254C143.373 49.6118 143.666 51.0302 143.728 52.7338C143.913 56.1332 143.288 61.0127 140.804 65.6917C138.359 70.3862 134.671 73.6623 131.756 75.4198C128.824 77.2159 126.734 77.6939 126.68 77.5397L126.687 77.532Z" fill="#D2D2D2"/>
<path d="M129.032 68.5439C128.963 69.1451 128.932 69.7618 129.11 70.3399C129.287 70.9181 129.703 71.45 130.282 71.6273C130.861 71.7968 131.509 71.581 131.933 71.157C132.357 70.7331 132.573 70.1318 132.612 69.5305C132.673 68.1122 132.326 66.5782 132.967 65.4836C133.607 64.389 134.502 63.4486 135.018 62.2846C135.211 61.8606 135.35 61.3981 135.296 60.9356C135.242 60.4731 134.972 60.0183 134.54 59.8487C133.83 59.5789 133.098 60.1416 132.589 60.7043C130.637 62.8627 129.38 65.6378 129.032 68.5284V68.5439Z" fill="#D2D2D2"/>
<path d="M292.84 137.936C293.21 137.936 293.025 142.823 290.071 147.918C287.162 153.037 283.028 155.665 282.843 155.341C282.557 155.002 286.067 152.019 288.798 147.186C291.59 142.391 292.4 137.859 292.84 137.936Z" fill="#D2D2D2"/>
<path d="M361.98 178.421C362.898 178.929 363.23 180.078 362.728 180.995L357.653 190.199C357.143 191.117 355.994 191.448 355.076 190.947C354.158 190.438 353.826 189.29 354.328 188.372L359.404 179.168C359.913 178.251 361.062 177.92 361.98 178.428V178.421Z" fill="#D2D2D2"/>
<path d="M361.98 178.421C361.934 178.536 361.479 178.297 360.777 178.498C360.437 178.606 360.06 178.845 359.828 179.253C359.543 179.839 359.257 180.433 358.964 181.034C358.185 182.545 357.39 184.094 356.573 185.69C356.094 186.584 355.609 187.486 355.115 188.419C354.583 189.182 354.799 189.914 355.423 190.307C356.087 190.623 356.82 190.423 357.182 189.559C357.699 188.65 358.208 187.756 358.71 186.877C359.628 185.335 360.507 183.832 361.379 182.367C361.733 181.805 362.073 181.242 362.42 180.687C362.651 180.278 362.644 179.824 362.551 179.484C362.351 178.783 361.903 178.529 361.973 178.428C361.98 178.359 362.59 178.413 363.076 179.269C363.292 179.685 363.423 180.332 363.161 181.018C362.867 181.627 362.574 182.244 362.273 182.868C361.494 184.379 360.7 185.929 359.882 187.524C359.404 188.419 358.918 189.32 358.424 190.253C358.247 190.693 357.653 191.494 356.951 191.725C356.241 192.018 355.385 191.98 354.698 191.594C354.004 191.217 353.518 190.515 353.387 189.76C353.209 189.043 353.572 188.118 353.842 187.732C354.359 186.823 354.868 185.929 355.369 185.05C356.287 183.508 357.167 182.005 358.038 180.548C358.409 179.962 358.771 179.392 359.134 178.814C359.574 178.228 360.191 177.997 360.661 177.95C361.649 177.904 362.019 178.39 361.965 178.436L361.98 178.421Z" fill="#D2D2D2"/>
</g>
<path d="M1014.91 657.796H548.891C548.891 657.796 468.797 656.177 555.364 645.671C641.93 635.164 679.868 645.91 741.356 603.058C802.845 560.207 829.636 606.858 858.756 610.096C887.884 613.333 921.055 610.905 955.035 621.412C989.015 631.919 1061.02 658.605 1061.02 658.605L1014.9 657.796H1014.91Z" fill="#E6E6E6"/>
</g>
<defs>
<clipPath id="clip0_5220_13207">
<rect width="1063" height="832" fill="white"/>
</clipPath>
</defs>
</svg>
